<?xml version="1.0" encoding="UTF-8"?>
<svg width="300px" height="300px" viewBox="0 0 300 300" version="1.1" xmlns="http://www.w3.org/2000/svg" xmlns:xlink="http://www.w3.org/1999/xlink">
    <!-- Generator: sketchtool 54.1 (76490) - https://sketchapp.com -->
    <title>D587E833-546F-40B6-87E8-748D80B61B88</title>
    <desc>Created with sketchtool.</desc>
    <g id="Symbols" stroke="none" stroke-width="1" fill="none" fill-rule="evenodd" stroke-linecap="round" stroke-linejoin="round">
        <g id="Icons-/-300x300-/-2" stroke="#D48A2D">
            <g id="Group-11" transform="translate(43.000000, 10.000000)">
                <path d="M51.0513905,121.12252 L45.779619,118.009134 C42.6855238,116.178425 40.5527238,113.07685 39.9575238,109.531181 L38.3537905,88.2311811 C38.2191619,86.4666142 38.6773714,84.7067717 39.6528381,83.2280315 L39.6575619,83.2233071 C41.7384,80.072126 45.7394667,78.8130709 49.251619,80.199685 L50.8813333,80.8422047" id="Stroke-271"></path>
                <path d="M59.9168,152.490945 C59.9168,152.490945 59.5105524,163.191732 59.9168,174.856299 C60.1010286,180.12874 60.9772952,187.919291 61.2111238,190.952362 C62.1133714,202.55315 68.1527619,212.52874 68.1527619,212.52874" id="Stroke-273"></path>
                <path d="M59.9168,174.855591 C59.9168,174.855591 60.1718857,184.783937 56.2440381,192.087874 C44.5738667,213.784724 -3.73034936e-13,226.542992 -3.73034936e-13,226.542992" id="Stroke-275"></path>
                <path d="M95.7350857,136.931102 L118.321981,136.931102" id="Stroke-277"></path>
                <path d="M107.02688,53.6104724 L107.02688,152.669528 C101.412632,152.669528 96.8612419,156.134882 96.8612419,160.419921 L90.5266133,185.931732 L86.2350324,182.23252 C85.8098895,181.86874 85.4060038,181.469528 85.0375467,181.046693 L59.0518705,151.509685 L56.5128229,148.467165 C54.4815848,145.634882 53.21088,142.320709 52.8329752,138.831732 L51.052099,122.497087 L51.052099,52.8285827 C51.052099,23.6506299 74.6994895,0.000236220472 103.873737,0.000236220472 L107.02688,0.000236220472" id="Stroke-279"></path>
                <path d="M107.02688,152.668583 C112.641128,152.668583 117.197242,156.136299 117.197242,160.418976" id="Stroke-281"></path>
                <polyline id="Stroke-283" points="85.6785676 205.460551 90.5275581 185.929843 96.8598248 160.420394"></polyline>
                <path d="M128.37968,205.460551 L117.198423,160.420394" id="Stroke-285"></path>
                <path d="M125.004046,205.192913 C117.422331,205.192913 110.783017,209.182677 107.02995,215.16378 C103.27216,209.182677 96.6375695,205.192913 89.0534933,205.192913 C77.3266362,205.192913 67.8199695,214.700787 67.8199695,226.429134 C67.8199695,238.15748 77.3266362,247.665354 89.0534933,247.665354 C96.6375695,247.665354 103.27216,243.675591 107.02995,237.69685 C110.783017,243.675591 117.422331,247.665354 125.004046,247.665354 C136.730903,247.665354 146.23757,238.15748 146.23757,226.429134 C146.23757,214.700787 136.730903,205.192913 125.004046,205.192913 Z" id="Stroke-287"></path>
                <path d="M59.8475962,233.740157 C58.288739,233.740157 56.8834057,234.356693 55.8276343,235.341732 C53.4491962,233.031496 50.2110248,231.607087 46.635101,231.607087 C39.3368152,231.607087 33.4226057,237.522047 33.4226057,244.818898 C33.4226057,252.11811 39.3368152,258.033071 46.635101,258.033071 C53.6877486,258.033071 59.431901,252.500787 59.8098057,245.544094 C59.8239771,245.544094 59.8357867,245.548819 59.8475962,245.548819 C63.1070248,245.548819 65.7523581,242.905512 65.7523581,239.643307 C65.7523581,236.381102 63.1070248,233.740157 59.8475962,233.740157 Z" id="Stroke-289"></path>
                <path d="M135.017813,230.999528 C132.299261,230.999528 129.710613,231.531024 127.320366,232.45937 C124.649051,223.787717 116.576061,217.482992 107.029242,217.482992 C97.480061,217.482992 89.4070705,223.787717 86.7357562,232.45937 C84.3478705,231.531024 81.756861,230.999528 79.0406705,230.999528 C67.3138133,230.999528 57.8071467,240.505039 57.8071467,252.233386 C57.8071467,263.961732 67.3138133,273.469606 79.0406705,273.469606 C88.5874895,273.469606 96.66048,267.167244 99.3317943,258.495591 C101.722042,259.423937 104.31069,259.955433 107.029242,259.955433 C109.745432,259.955433 112.33408,259.423937 114.724328,258.495591 C117.395642,267.167244 125.468632,273.469606 135.017813,273.469606 C146.74467,273.469606 156.248975,263.961732 156.248975,252.233386 C156.248975,240.505039 146.74467,230.999528 135.017813,230.999528 Z" id="Stroke-291"></path>
                <path d="M91.8485714,264.388819 C91.8485714,272.774646 98.6437714,279.573071 107.028533,279.573071 C115.413295,279.573071 122.208495,272.774646 122.208495,264.388819 C122.208495,256.002992 115.413295,249.206929 107.028533,249.206929 C98.6437714,249.206929 91.8485714,256.002992 91.8485714,264.388819 Z" id="Stroke-293"></path>
                <path d="M168.570088,231.606142 C164.994164,231.606142 161.755992,233.032913 159.375192,235.340787 C158.321783,234.355748 156.914088,233.739213 155.357592,233.739213 C152.095802,233.739213 149.455192,236.380157 149.455192,239.642362 C149.455192,242.904567 152.095802,245.547874 155.357592,245.547874 C155.369402,245.547874 155.381211,245.54315 155.393021,245.54315 C155.773288,252.502205 161.51744,258.034488 168.570088,258.034488 C175.866011,258.034488 181.782583,252.119528 181.782583,244.820315 C181.782583,237.521102 175.866011,231.606142 168.570088,231.606142 Z" id="Stroke-295"></path>
                <path d="M167.136648,224.194488 C167.136648,225.491339 168.187695,226.54252 169.484381,226.54252 C170.778705,226.54252 171.829752,225.491339 171.829752,224.194488 C171.829752,222.897638 170.778705,221.848819 169.484381,221.848819 C168.187695,221.848819 167.136648,222.897638 167.136648,224.194488 Z" id="Stroke-297"></path>
                <path d="M146.236861,266.054409 C146.236861,269.000079 148.624747,271.388268 151.570042,271.388268 C154.515337,271.388268 156.903223,269.000079 156.903223,266.054409 C156.903223,263.10874 154.515337,260.720551 151.570042,260.720551 C148.624747,260.720551 146.236861,263.10874 146.236861,266.054409 Z" id="Stroke-299"></path>
                <path d="M46.920419,224.194488 C46.920419,225.491339 45.8693714,226.54252 44.5726857,226.54252 C43.2783619,226.54252 42.2273143,225.491339 42.2273143,224.194488 C42.2273143,222.897638 43.2783619,221.848819 44.5726857,221.848819 C45.8693714,221.848819 46.920419,222.897638 46.920419,224.194488 Z" id="Stroke-301"></path>
                <path d="M38.7553143,242.854488 C38.7553143,245.800157 36.3674286,248.188346 33.4221333,248.188346 C30.4768381,248.188346 28.0889524,245.800157 28.0889524,242.854488 C28.0889524,239.908819 30.4768381,237.52063 33.4221333,237.52063 C36.3674286,237.52063 38.7553143,239.908819 38.7553143,242.854488 Z" id="Stroke-303"></path>
                <path d="M177.325669,242.854488 C177.325669,245.800157 179.713554,248.188346 182.65885,248.188346 C185.601783,248.188346 187.99203,245.800157 187.99203,242.854488 C187.99203,239.908819 185.601783,237.52063 182.65885,237.52063 C179.713554,237.52063 177.325669,239.908819 177.325669,242.854488 Z" id="Stroke-305"></path>
                <path d="M67.7890286,266.054409 C67.7890286,269.000079 65.4011429,271.388268 62.4558476,271.388268 C59.5129143,271.388268 57.1226667,269.000079 57.1226667,266.054409 C57.1226667,263.10874 59.5129143,260.720551 62.4558476,260.720551 C65.4011429,260.720551 67.7890286,263.10874 67.7890286,266.054409 Z" id="Stroke-307"></path>
                <path d="M137.410895,50.4685039 C121.054705,50.4685039 105.267733,44.2110236 94.0982857,33.2976378 C88.9705905,28.2897638 89.2398476,22.0984252 91.2002286,17.976378 C93.1606095,13.8543307 97.934019,9.4488189 105.442514,9.4488189 L113.357257,9.4488189 C136.185067,9.4488189 154.759086,26.4023622 154.759086,47.2440945 L154.759086,50.4685039 L137.410895,50.4685039 Z" id="Stroke-309"></path>
                <path d="M137.410895,45.7440945 C122.481295,45.7440945 108.073676,40.0322835 97.8796952,30.0732283 C93.5763048,25.8708661 95.3123048,21.1913386 95.9476571,19.8590551 C96.5806476,18.5267717 99.1409524,14.1732283 105.442514,14.1732283 L113.357257,14.1732283 C132.783924,14.1732283 148.686629,28.2 149.548724,45.7440945 L137.410895,45.7440945 Z" id="Stroke-311"></path>
                <path d="M136.327962,36.2837008 C124.643619,36.0167717 113.438743,31.4340945 105.441333,23.6246457 L113.358438,23.6222835 C123.276076,23.6222835 131.984419,28.6088976 136.327962,36.2837008 Z" id="Stroke-313"></path>
                <path d="M102.357158,153.535748 L93.8165105,205.731024" id="Stroke-315"></path>
                <path d="M105.002728,152.823071 L98.0870705,207.20811" id="Stroke-317"></path>
                <path d="M69.9478095,93.8116535 L73.9181714,93.8116535 L74.6881524,94.0337008 C80.030781,95.5667717 86.4008381,95.4840945 91.6064762,93.8116535 L96.5664762,93.8116535" id="Stroke-319"></path>
                <path d="M144.106895,93.8116535 L140.136533,93.8116535 L139.366552,94.0337008 C134.023924,95.5667717 127.651505,95.4840945 122.445867,93.8116535 L117.488229,93.8116535" id="Stroke-321"></path>
                <path d="M163.002133,107.881181 L162.999771,107.883543 C154.681143,114.69378 149.378667,124.504016 148.235505,135.192992 L147.885943,138.478819" id="Stroke-323"></path>
                <path d="M63.2520457,82.9880315 L96.5643505,82.9880315" id="Stroke-325"></path>
                <path d="M117.488229,82.9880315 L150.800533,82.9880315" id="Stroke-327"></path>
                <path d="M165.110133,59.9173228 L137.409714,59.9173228 C118.124762,59.9173228 99.7019048,52.6133858 86.5342857,39.7488189 C71.0827048,24.6519685 82.8095619,2.84217094e-13 105.441333,2.84217094e-13 L113.358438,2.84217094e-13 C141.939848,2.84217094e-13 165.110133,21.1535433 165.110133,47.2440945 L165.110133,59.9173228 Z" id="Stroke-329"></path>
                <path d="M45.851421,59.4051969 L45.851421,91.2217323 L51.0523352,91.2217323 L51.0523352,68.8894488 C55.0935543,65.1973228 57.3609829,63.1280315 61.4022019,59.4406299 L82.9474971,59.4406299 C91.9416305,59.4406299 96.7008686,49.8595276 91.0417448,43.6965354" id="Stroke-331"></path>
                <path d="M91.1645638,43.8524409 C96.6087543,50.0201575 91.8684114,59.4406299 82.9474971,59.4406299 L61.4022019,59.4406299 C57.3609829,63.1280315 55.0935543,65.1973228 51.0523352,68.8894488 L51.0523352,91.2217323 L45.851421,91.2217323 L45.851421,81.6004724 L45.851421,63.2933858 L45.851421,59.4051969 L45.851421,52.8288189 C45.851421,23.6508661 71.7591543,0.000472440944 103.72045,0.000472440944 L105.442278,0.000472440944 C82.8105067,0.000472440944 71.0836495,24.6524409 86.5352305,39.7516535 C88.011421,41.1902362 89.5631924,42.5532283 91.1645638,43.8524409" id="Stroke-333"></path>
                <path d="M69.1452343,23.113937 C61.4666819,30.5761417 56.7995581,40.3769291 56.25632,50.7753543 L57.1160533,49.9911024 L82.9458438,49.9911024 L83.0450438,49.8871654 C81.5924724,48.6611811 80.2272914,47.425748 78.9754819,46.202126 C72.3314438,39.7131496 68.9562819,31.4950394 69.1452343,23.113937 Z" id="Stroke-335"></path>
            </g>
        </g>
    </g>
</svg>