<?xml version="1.0" encoding="UTF-8"?>
<svg width="300px" height="300px" viewBox="0 0 300 300" version="1.1" xmlns="http://www.w3.org/2000/svg" xmlns:xlink="http://www.w3.org/1999/xlink">
    <!-- Generator: sketchtool 54.1 (76490) - https://sketchapp.com -->
    <title>360D39AA-7A73-4948-AFD4-0ECCE51B173F</title>
    <desc>Created with sketchtool.</desc>
    <g id="Symbols" stroke="none" stroke-width="1" fill="none" fill-rule="evenodd" stroke-linecap="round" stroke-linejoin="round">
        <g id="Icons-/-300x300-/-4" stroke="#D48A2D">
            <g id="Group-13" transform="translate(17.000000, 8.000000)">
                <path d="M44.9541333,98.0714173 L-1.13686838e-13,98.0714173 C-1.13686838e-13,132.108425 5.84335238,144.304488 21.1296,148.086378 C40.5869714,152.900551 41.3593143,155.621811 41.3593143,160.995827 C41.3593143,166.369843 37.7621333,174.954094 37.7621333,187.991102 L37.7621333,209.574567 C37.7621333,213.297402 40.7806476,216.318661 44.5053714,216.318661 L44.9541333,216.318661 L44.0566095,216.318661 L44.5053714,216.318661 C48.2300952,216.318661 51.2486095,213.297402 51.2486095,209.574567 L51.2486095,187.991102 C51.2486095,174.954094 47.6537905,166.369843 47.6537905,160.995827 C47.6537905,155.621811 48.4237714,152.900551 67.8811429,148.086378 C83.1673905,144.304488 89.0107429,132.108425 89.0107429,98.0714173 L44.0566095,98.0714173 L44.9541333,98.0714173 Z" id="Stroke-145"></path>
                <path d="M44.5044267,163.906535 C44.742979,165.62622 45.139779,167.497087 45.5743695,169.545118 C46.5994362,174.385276 47.8772267,180.404173 47.8772267,187.991575 L47.8772267,209.575039 C47.8772267,211.434094 46.3656076,212.945906 44.5044267,212.945906 C42.6456076,212.945906 41.1339886,211.434094 41.1339886,209.575039 L41.1339886,187.991575 C41.1339886,180.404173 42.4094171,174.385276 43.4368457,169.545118 C43.8714362,167.497087 44.2682362,165.62622 44.5044267,163.906535 Z M85.6181029,98.0718898 C85.4315124,112.93252 83.978941,126.41126 81.0832457,133.084488 C78.272579,139.571102 74.0801981,143.078976 67.0724267,144.812835 C66.9094552,144.852992 66.7488457,144.89315 66.5905981,144.933307 C52.0885029,148.54748 36.9227124,148.54748 22.4206171,144.933307 C22.2623695,144.89315 22.10176,144.852992 21.9387886,144.812835 C14.9310171,143.078976 10.7386362,139.571102 7.92796952,133.084488 C5.03227429,126.41126 3.57970286,112.93252 3.39311238,98.0718898 L85.6181029,98.0718898 Z" id="Stroke-147"></path>
                <path d="M85.2794057,107.543386 L3.69685333,107.543386" id="Stroke-149"></path>
                <path d="M81.6952152,283.465276 L90.3728533,198.652677 C91.24912,190.082598 95.9776533,182.71252 102.76813,179.322756 L110.68051,175.375512 L110.68051,171.352677 L110.501006,170.610945 C107.463596,158.020394 107.888739,144.63378 111.715025,132.338504 L111.715025,128.660551 L110.080587,121.53378 C107.610034,110.762126 107.652549,99.4093701 110.20813,88.6613386 L111.025349,85.2266929 L111.025349,81.5440157 L110.423063,79.3259055 C106.781006,65.9156693 107.12112,51.4613386 111.389082,38.3062205 L111.715025,37.3070079 L111.715025,33.6196063 L106.060625,13.666063 C105.814987,12.7991339 106.367672,11.9038583 107.149463,11.9038583 L117.907939,10.7652756 L117.907939,283.465276 L81.6952152,283.465276 Z" id="Stroke-151"></path>
                <polygon id="Stroke-153" points="90.372381 198.652205 117.907467 198.652205 117.907467 211.967953 89.0119238 211.967953"></polygon>
                <path d="M89.0114514,211.967244 L81.6942705,283.466457" id="Stroke-155"></path>
                <path d="M93.8276114,211.967244 L87.7315352,283.466457" id="Stroke-157"></path>
                <path d="M98.6435352,211.967244 L93.7685638,283.466457" id="Stroke-159"></path>
                <path d="M103.459695,211.967244 L99.8011048,283.466457" id="Stroke-161"></path>
                <path d="M108.275855,211.967244 L105.83837,283.466457" id="Stroke-163"></path>
                <path d="M113.091779,211.967244 L111.870674,283.466457" id="Stroke-165"></path>
                <path d="M117.907939,211.967244 L117.907939,283.466457" id="Stroke-167"></path>
                <path d="M111.025112,81.5430709 L117.907703,81.5430709" id="Stroke-169"></path>
                <path d="M111.025112,85.2269291 L117.907703,85.2269291" id="Stroke-171"></path>
                <path d="M111.714789,128.660315 L117.907703,128.660315" id="Stroke-173"></path>
                <path d="M111.714789,132.339685 L117.907703,132.339685" id="Stroke-175"></path>
                <path d="M110.681455,171.352913 L117.908884,171.352913" id="Stroke-177"></path>
                <path d="M110.681455,175.375984 L117.908884,175.375984" id="Stroke-179"></path>
                <path d="M111.714789,37.3070079 L117.907703,37.3070079" id="Stroke-181"></path>
                <path d="M111.714789,33.6207874 L117.907703,33.6207874" id="Stroke-183"></path>
                <path d="M154.118301,283.465276 L145.443025,198.652677 C144.564396,190.082598 139.838225,182.71252 133.045387,179.322756 L125.135368,175.375512 L125.135368,171.352677 L125.31251,170.610945 C128.352282,158.020394 127.927139,144.63378 124.100853,132.338504 L124.100853,128.660551 L125.735291,121.53378 C128.205844,110.762126 128.16333,99.4093701 125.605387,88.6613386 L124.788168,85.2266929 L124.788168,81.5440157 L125.390453,79.3259055 C129.034872,65.9156693 128.694758,51.4613386 124.426796,38.3062205 L124.100853,37.3070079 L124.100853,33.6196063 L129.755253,13.666063 C130.000891,12.7991339 129.448206,11.9038583 128.666415,11.9038583 L117.907939,10.7652756 L117.907939,283.465276 L154.118301,283.465276 Z" id="Stroke-185"></path>
                <polygon id="Stroke-187" points="145.443497 198.652205 117.908411 198.652205 117.908411 211.967953 146.803954 211.967953"></polygon>
                <path d="M146.804427,211.967244 L154.119246,283.466457" id="Stroke-189"></path>
                <path d="M141.988267,211.967244 L148.084343,283.466457" id="Stroke-191"></path>
                <path d="M137.172107,211.967244 L142.047078,283.466457" id="Stroke-193"></path>
                <path d="M132.356183,211.967244 L136.014773,283.466457" id="Stroke-195"></path>
                <path d="M127.540023,211.967244 L129.977509,283.466457" id="Stroke-197"></path>
                <path d="M122.724099,211.967244 L123.942842,283.466457" id="Stroke-199"></path>
                <path d="M117.907939,211.967244 L117.907939,283.466457" id="Stroke-201"></path>
                <path d="M124.788404,81.5430709 L117.908175,81.5430709" id="Stroke-203"></path>
                <path d="M124.788404,85.2269291 L117.908175,85.2269291" id="Stroke-205"></path>
                <path d="M124.10109,128.660315 L117.908175,128.660315" id="Stroke-207"></path>
                <path d="M124.10109,132.339685 L117.908175,132.339685" id="Stroke-209"></path>
                <path d="M125.134423,171.352913 L117.906994,171.352913" id="Stroke-211"></path>
                <path d="M125.134423,175.375984 L117.906994,175.375984" id="Stroke-213"></path>
                <path d="M124.10109,37.3070079 L117.908175,37.3070079" id="Stroke-215"></path>
                <path d="M124.10109,33.6207874 L117.908175,33.6207874" id="Stroke-217"></path>
                <path d="M245.381592,244.452047 L167.103345,244.452047 C166.408945,244.452047 165.886964,243.821339 166.014507,243.141024 L166.76323,239.137087 L155.442621,129.542598 L152.89885,124.322126 L150.49443,101.118189 L261.997592,101.118189 L259.595535,124.322126 L257.044678,129.578031 L245.702811,239.137087 L246.47043,243.133937 C246.600335,243.818976 246.075992,244.452047 245.381592,244.452047 Z" id="Stroke-219"></path>
                <path d="M206.246484,101.118898 L206.246484,244.452756" id="Stroke-221"></path>
                <path d="M152.898141,124.321181 L259.594827,124.321181" id="Stroke-223"></path>
                <path d="M165.754933,229.139291 L246.9336,229.139291" id="Stroke-225"></path>
                <path d="M245.702103,239.137087 L166.762522,239.137087" id="Stroke-227"></path>
                <path d="M155.442385,129.54378 L257.046804,129.54378" id="Stroke-229"></path>
                <path d="M261.998065,101.118898 C261.998065,79.1503937 249.298103,60.1535433 230.842179,51.0637795 C223.421074,47.411811 215.074103,45.3590551 206.247665,45.3590551 C197.407055,45.3590551 189.045912,47.4165354 181.624808,51.0779528 C163.180693,60.1724409 150.494903,79.1622047 150.494903,101.118898" id="Stroke-231"></path>
                <path d="M265.236236,98.4153543 C265.914103,98.6468504 266.454979,99.1830709 266.684084,99.8633858 C267.305265,101.705906 265.78656,103.399606 263.982065,103.101969 C262.975893,102.938976 262.161036,102.124016 261.998065,101.120079" id="Stroke-233"></path>
                <path d="M147.256495,98.4153543 C146.576267,98.6468504 146.03539,99.1830709 145.808648,99.8633858 C145.187467,101.705906 146.70381,103.399606 148.508305,103.101969 C149.516838,102.938976 150.329333,102.124016 150.494667,101.120079" id="Stroke-235"></path>
                <path d="M232.047459,177.334488 C232.047459,190.810866 220.488297,201.736063 206.23184,201.736063 C191.975383,201.736063 180.418583,190.810866 180.418583,177.334488 C180.418583,163.855748 191.975383,152.930551 206.23184,152.930551 C220.488297,152.930551 232.047459,163.855748 232.047459,177.334488 Z" id="Stroke-237"></path>
                <path d="M230.840998,51.0628346 L230.840998,80.7793701 C230.840998,85.6762205 226.870636,89.6470866 221.972046,89.6470866 L190.490217,89.6470866 C185.593989,89.6470866 181.623627,85.6762205 181.623627,80.7793701 L181.623627,51.0793701 C189.047093,47.4155906 197.408236,45.3581102 206.246484,45.3581102 C215.072922,45.3581102 223.419893,47.4108661 230.840998,51.0628346 Z" id="Stroke-239"></path>
                <path d="M41.990179,36.2435433 L41.990179,5.35771654" id="Stroke-241"></path>
                <path d="M41.990179,91.9929921 L41.990179,71.4677953" id="Stroke-243"></path>
                <path d="M24.3819429,53.856378 L3.85699048,53.856378" id="Stroke-245"></path>
                <path d="M80.1243124,53.856378 L59.59936,53.856378" id="Stroke-247"></path>
                <polygon id="Stroke-249" points="39.2685562 60.4285039 33.4393752 62.4080315 35.4186514 56.5781102 24.3814705 53.8568504 35.4186514 51.1332283 33.4393752 45.3056693 39.2685562 47.2851969 41.9894705 36.244252 44.7127467 47.2851969 50.5395657 45.3056693 48.5626514 51.1332283 59.5974705 53.8568504 48.5626514 56.5781102 50.5395657 62.4080315 44.7127467 60.4285039 41.9894705 71.4670866"></polygon>
                <path d="M62.5139505,226.523386 L62.5139505,205.058031" id="Stroke-251"></path>
                <path d="M62.5139505,265.266614 L62.5139505,251.00126" id="Stroke-253"></path>
                <path d="M50.2776305,238.761024 L36.0140876,238.761024" id="Stroke-255"></path>
                <path d="M89.0161752,238.761024 L74.7526324,238.761024" id="Stroke-257"></path>
                <polygon id="Stroke-259" points="60.6225371 243.328583 56.5718705 244.703386 57.948861 240.652205 50.2773943 238.760079 57.948861 236.870315 56.5718705 232.819134 60.6225371 234.193937 62.5144229 226.523858 64.4086705 234.193937 68.4569752 232.819134 67.0799848 236.870315 74.7514514 238.760079 67.0799848 240.652205 68.4569752 244.703386 64.4086705 243.328583 62.5144229 251.001024"></polygon>
                <path d="M181.624099,18.2409449 L181.624099,-4.06785716e-13" id="Stroke-261"></path>
                <path d="M181.624099,51.1641732 L181.624099,39.0413386" id="Stroke-263"></path>
                <path d="M171.223688,28.6424409 L159.102392,28.6424409" id="Stroke-265"></path>
                <path d="M204.142735,28.6424409 L192.02144,28.6424409" id="Stroke-267"></path>
                <polygon id="Stroke-269" points="180.01635 32.5225984 176.575055 33.6918898 177.741836 30.2477953 171.222979 28.6414961 177.741836 27.0351969 176.575055 23.5911024 180.01635 24.7603937 181.624808 18.2407087 183.230903 24.7603937 186.672198 23.5911024 185.503055 27.0351969 192.021912 28.6414961 185.503055 30.2477953 186.672198 33.6918898 183.230903 32.5225984 181.624808 39.0422835"></polygon>
            </g>
        </g>
    </g>
</svg>