<svg xmlns="http://www.w3.org/2000/svg" width="210" height="402" viewBox="0 0 210 402">
    <g fill="none" fill-rule="evenodd" opacity=".3">
        <path stroke="#DA9700" stroke-width="6" d="M128.153 239.404c16.505-23.191 35.316-47.23 47.264-37.928 11.948 9.306-9.85 42.93-24.453 61.872-14.604 18.943-19.912 34.54-10.455 42.879C153.629 317.793 207 281.165 207 212.76c0-52.343-38.084-104.134-104.309-104.134-68.045 0-128.286 71.725-84.124 150.853"/>
        <path d="M113.75 264.597l-3.913-2.75 8.624-14.516 6.324 4.445z"/>
        <path stroke="#DA9700" stroke-linecap="round" stroke-linejoin="round" d="M113.75 264.597l-3.913-2.75 8.624-14.516 6.324 4.445z"/>
        <path d="M126.51 247.844l-4.978-3.39-1.922 3.657 3.921 2.673z"/>
        <path stroke="#DA9700" stroke-linecap="round" stroke-linejoin="round" d="M126.51 247.844l-4.978-3.39-1.922 3.657 3.921 2.673z"/>
        <path d="M131.109 241.513l-5.006-3.39-4.768 6.39 5.007 3.393z"/>
        <path stroke="#DA9700" stroke-linecap="round" stroke-linejoin="round" d="M131.109 241.513l-5.006-3.39-4.768 6.39 5.007 3.393z"/>
        <path fill="#0D0D0D" stroke="#FB3" d="M118.775 1H87.1c-1.412 0-2.56 1.264-2.56 2.82v3.934c0 2.398 1.38 4.534 3.433 5.326 5.918 2.277 9.311 9.116 7.863 15.834L93.54 39.561h18.798l-2.298-10.647c-1.449-6.718 1.948-13.557 7.863-15.834 2.056-.792 3.432-2.928 3.432-5.326V3.821c0-1.557-1.147-2.821-2.56-2.821"/>
        <path d="M103.088 39.332H53.572"/>
        <path stroke="#DA9700" stroke-linecap="round" stroke-linejoin="round" d="M103.088 39.332H53.572"/>
        <path d="M113.27 39.561H62.118l5.262 12.65a5.622 5.622 0 0 0 5.195 3.465H133.304a5.625 5.625 0 0 0 5.195-3.465l5.258-12.65h-30.486z"/>
        <path stroke="#DA9700" stroke-linecap="round" stroke-linejoin="round" d="M113.27 39.561H62.118l5.262 12.65a5.622 5.622 0 0 0 5.195 3.465H133.304a5.625 5.625 0 0 0 5.195-3.465l5.258-12.65h-30.486z"/>
        <path d="M102.964 55.676h-6.926v5.756h13.799v-5.756z"/>
        <path stroke="#DA9700" stroke-linecap="round" stroke-linejoin="round" d="M102.964 55.676h-6.926v5.756h13.799v-5.756z"/>
        <path d="M102.964 251.935h-6.926v5.756h13.799v-5.756z"/>
        <path stroke="#DA9700" stroke-linecap="round" stroke-linejoin="round" d="M102.964 251.935h-6.926v5.756h13.799v-5.756z"/>
        <path d="M109.837 61.434v-.002H96.038v.002a36.843 36.843 0 0 1 0 23.592v.003h13.799v-.003a36.843 36.843 0 0 1 0-23.592"/>
        <path stroke="#DA9700" stroke-linecap="round" stroke-linejoin="round" d="M109.837 61.434v-.002H96.038v.002a36.843 36.843 0 0 1 0 23.592v.003h13.799v-.003a36.843 36.843 0 0 1 0-23.592z"/>
        <path d="M109.837 85.031v-.002H96.038v.002a36.843 36.843 0 0 1 0 23.592v.003h13.799v-.003a36.843 36.843 0 0 1 0-23.592"/>
        <path stroke="#DA9700" stroke-linecap="round" stroke-linejoin="round" d="M109.837 85.031v-.002H96.038v.002a36.843 36.843 0 0 1 0 23.592v.003h13.799v-.003a36.843 36.843 0 0 1 0-23.592z"/>
        <path d="M109.837 109.201H96.038a36.858 36.858 0 0 1 0 23.598h13.799a36.858 36.858 0 0 1 0-23.598"/>
        <path stroke="#DA9700" stroke-linecap="round" stroke-linejoin="round" d="M109.837 109.201H96.038a36.858 36.858 0 0 1 0 23.598h13.799a36.858 36.858 0 0 1 0-23.598z"/>
        <path d="M109.837 132.801v-.002H96.038v.002a36.85 36.85 0 0 1 0 23.595h13.799a36.85 36.85 0 0 1 0-23.595"/>
        <path stroke="#DA9700" stroke-linecap="round" stroke-linejoin="round" d="M109.837 132.801v-.002H96.038v.002a36.85 36.85 0 0 1 0 23.595h13.799a36.85 36.85 0 0 1 0-23.595z"/>
        <path d="M109.837 156.974v-.003H96.038v.003a36.843 36.843 0 0 1 0 23.592v.002h13.799v-.002a36.843 36.843 0 0 1 0-23.592"/>
        <path stroke="#DA9700" stroke-linecap="round" stroke-linejoin="round" d="M109.837 156.974v-.003H96.038v.003a36.843 36.843 0 0 1 0 23.592v.002h13.799v-.002a36.843 36.843 0 0 1 0-23.592z"/>
        <path d="M109.837 180.568H96.038a36.85 36.85 0 0 1 0 23.595v.002h13.799v-.002a36.85 36.85 0 0 1 0-23.595"/>
        <path stroke="#DA9700" stroke-linecap="round" stroke-linejoin="round" d="M109.837 180.568H96.038a36.85 36.85 0 0 1 0 23.595v.002h13.799v-.002a36.85 36.85 0 0 1 0-23.595z"/>
        <path d="M109.837 204.741H96.038a36.858 36.858 0 0 1 0 23.597h13.799a36.858 36.858 0 0 1 0-23.597"/>
        <path stroke="#DA9700" stroke-linecap="round" stroke-linejoin="round" d="M109.837 204.741H96.038a36.858 36.858 0 0 1 0 23.597h13.799a36.858 36.858 0 0 1 0-23.597z"/>
        <path d="M109.837 228.34v-.002H96.038v.003a36.843 36.843 0 0 1 0 23.592v.002h13.799v-.002a36.843 36.843 0 0 1 0-23.592"/>
        <path stroke="#DA9700" stroke-linecap="round" stroke-linejoin="round" d="M109.837 228.34v-.002H96.038v.003a36.843 36.843 0 0 1 0 23.592v.002h13.799v-.002a36.843 36.843 0 0 1 0-23.592z"/>
        <path d="M109.668 257.69H96.21c0 5.47-5.92 8.058-5.92 8.058h25.297s-5.918-2.589-5.918-8.057"/>
        <path stroke="#DA9700" stroke-linecap="round" stroke-linejoin="round" d="M109.668 257.69H96.21c0 5.47-5.92 8.058-5.92 8.058h25.297s-5.918-2.589-5.918-8.057z"/>
        <path d="M116.044 265.748H90.406c3.684 5.655-2.417 9.209-2.417 9.209H118.46s-6.1-3.554-2.416-9.209"/>
        <path stroke="#DA9700" stroke-linecap="round" stroke-linejoin="round" d="M116.044 265.748H90.406c3.684 5.655-2.417 9.209-2.417 9.209H118.46s-6.1-3.554-2.416-9.209z"/>
        <path d="M157.938 391.128c-19.934-17.61-56.483-55.23-41.767-83.379.213-.403.331-.852.331-1.309v-24.036l3.32-2.073v-3.072H86.052v3.072l3.32 2.073v24.036c0 .457.117.906.33 1.309 14.716 28.15-21.832 65.769-41.767 83.379-3.894 3.44-1.454 9.872 3.743 9.872h102.517c5.198 0 7.64-6.431 3.743-9.872"/>
        <path stroke="#DA9700" stroke-linecap="round" stroke-linejoin="round" d="M157.938 391.703c-19.934-17.61-56.483-55.804-41.767-83.954.213-.403.331-.852.331-1.309v-22.885l3.32-2.649v-3.071H86.052v3.071l3.32 2.65v22.884c0 .457.117.906.33 1.309 14.716 28.15-21.832 65.769-41.767 83.379-3.894 3.44-1.454 9.872 3.743 9.872h102.517c5.198 0 7.64-5.856 3.743-9.297z"/>
        <path d="M103.347 39.332h49.519"/>
        <path stroke="#DA9700" stroke-linecap="round" stroke-linejoin="round" d="M103.347 39.332h49.519"/>
        <path d="M89.39 282.469h27.083"/>
        <path stroke="#DA9700" stroke-linecap="round" stroke-linejoin="round" d="M89.39 283.62h27.083"/>
        <path d="M86.337 280.087h33.512"/>
        <path stroke="#DA9700" stroke-linecap="round" stroke-linejoin="round" d="M86.337 280.662h33.512"/>
        <path stroke="#FB3" stroke-linecap="round" stroke-linejoin="round" d="M84.57 4.81h36.723"/>
        <path d="M87.99 277.001h30.47v-1.786H87.99z"/>
        <path stroke="#DA9700" stroke-linecap="round" stroke-linejoin="round" d="M87.99 277.512h30.47v-2.233H87.99z"/>
        <path d="M34.52 279.73c-3.23-2.878-5.438-6.776-6.285-11.101v-.003l-3.183 1.93-3.18 1.932h.002c3.231 2.878 5.438 6.777 6.286 11.102l3.18-1.928 3.18-1.931z"/>
        <path stroke="#DA9700" stroke-linecap="round" stroke-linejoin="round" d="M34.52 279.73c-3.23-2.878-5.438-6.776-6.285-11.101v-.003l-3.183 1.93-3.18 1.932h.002c3.231 2.878 5.438 6.777 6.286 11.102l3.18-1.928 3.18-1.931z"/>
        <path d="M41.42 290.666c-3.234-2.879-5.44-6.777-6.288-11.102v-.003l-3.18 1.931-3.18 1.931c3.232 2.878 5.437 6.777 6.287 11.102l3.18-1.928 3.18-1.931z"/>
        <path stroke="#DA9700" stroke-linecap="round" stroke-linejoin="round" d="M41.42 290.666c-3.234-2.879-5.44-6.777-6.288-11.102v-.003l-3.18 1.931-3.18 1.931c3.232 2.878 5.437 6.777 6.287 11.102l3.18-1.928 3.18-1.931z"/>
        <path d="M47.744 301.601c-3.233-2.878-5.44-6.777-6.285-11.102l-.003-.003-3.18 1.931-3.18 1.931c3.233 2.879 5.44 6.777 6.287 11.102l3.18-1.928 3.18-1.931z"/>
        <path stroke="#DA9700" stroke-linecap="round" stroke-linejoin="round" d="M47.744 301.601c-3.233-2.878-5.44-6.777-6.285-11.102l-.003-.003-3.18 1.931-3.18 1.931c3.233 2.879 5.44 6.777 6.287 11.102l3.18-1.928 3.18-1.931z"/>
        <path d="M54.068 312.534c-3.23-2.879-5.438-6.777-6.285-11.102l-3.183 1.93-3.18 1.93v.002c3.233 2.878 5.44 6.774 6.287 11.1v.002l3.18-1.931 3.181-1.931z"/>
        <path stroke="#DA9700" stroke-linecap="round" stroke-linejoin="round" d="M54.068 312.534c-3.23-2.879-5.438-6.777-6.285-11.102l-3.183 1.93-3.18 1.93v.002c3.233 2.878 5.44 6.774 6.287 11.1v.002l3.18-1.931 3.181-1.931z"/>
        <path d="M21.908 257.69l-6.36 3.86 6.287 11.105 6.361-3.86z"/>
        <path stroke="#DA9700" stroke-linecap="round" stroke-linejoin="round" d="M21.908 257.69l-6.36 3.86 6.287 11.105 6.361-3.86z"/>
        <path d="M54.2 312.367l-6.456 3.798 32.067 54.907 6.453-3.798z"/>
        <path stroke="#DA9700" stroke-linecap="round" stroke-linejoin="round" d="M54.2 312.367l-6.456 3.798 32.067 54.907 6.453-3.798z"/>
        <path d="M86.365 367.619l-6.425 3.76 11.875 16.384 3.073-1.798z"/>
        <path stroke="#DA9700" stroke-linecap="round" stroke-linejoin="round" d="M86.365 367.619l-6.425 3.76 11.875 16.384 3.073-1.798z"/>
    </g>
</svg>
