<svg xmlns="http://www.w3.org/2000/svg" width="40" height="80" viewBox="0 0 40 80">
    <g fill="none" fill-rule="evenodd">
        <path d="M23.889 47.112l.125 1.301h-7.463l.126-1.301.237-1.75.639-.448c-.345-1.711-1.029-2.646-1.916-3.328-.355-.274-.784-.55-1.172-.78l.863-1.462c2.51 1.461 2.977 5.164 2.977 5.164l.218-.163h3.52l.22.163.944-2.277h.002l.805.352-1.002 2.331.641.448.236 1.75z"/>
        <path stroke="#FB3" stroke-linecap="round" stroke-linejoin="round" d="M23.889 47.112l.125 1.301h-7.463l.126-1.301.237-1.75.639-.448c-.345-1.711-1.029-2.646-1.916-3.328-.355-.274-.784-.55-1.172-.78l.863-1.462c2.51 1.461 2.977 5.164 2.977 5.164l.218-.163h3.52l.22.163.944-2.277h.002l.805.352-1.002 2.331.641.448.236 1.75z"/>
        <path d="M21.342 7.322H19.23c-.131 0-.224-.15-.187-.297l.569-2.532h1.35l.569 2.532c.036.148-.058.297-.19.297"/>
        <path stroke="#FB3" stroke-linecap="round" stroke-linejoin="round" d="M21.342 7.322H19.23c-.131 0-.224-.15-.187-.297l.569-2.532h1.35l.569 2.532c.036.148-.058.297-.19.297z"/>
        <path d="M19.419 8.789h1.727V7.324H19.42z"/>
        <path stroke="#FB3" stroke-linecap="round" stroke-linejoin="round" d="M19.419 8.789h1.727V7.324H19.42z"/>
        <path d="M30.049 8.79l-.718.658a.43.43 0 0 1-.29.113H11.525a.429.429 0 0 1-.29-.113l-.717-.659h19.53z"/>
        <path stroke="#FB3" stroke-linecap="round" stroke-linejoin="round" d="M30.049 8.79l-.718.658a.43.43 0 0 1-.29.113H11.525a.429.429 0 0 1-.29-.113l-.717-.659h19.53z"/>
        <path d="M28.487 9.56l-5.99 1.507h-4.428l-5.99-1.506z"/>
        <path stroke="#FB3" stroke-linecap="round" stroke-linejoin="round" d="M28.487 9.56l-5.99 1.507h-4.428l-5.99-1.506z"/>
        <path d="M22.355 26.522a.855.855 0 0 1-.267.692l-.899.852-.056.046h-1.7l-.056-.052-.899-.846a.855.855 0 0 1-.267-.692l.365-4.528.087-1.082.103-1.293a.85.85 0 0 1 .226-.512l.667-.718h1.253l.663.718a.85.85 0 0 1 .226.512l.102 1.288.088 1.092.364 4.523z"/>
        <path stroke="#FB3" stroke-linecap="round" stroke-linejoin="round" d="M22.355 26.522a.855.855 0 0 1-.267.692l-.899.852-.056.046h-1.7l-.056-.052-.899-.846a.855.855 0 0 1-.267-.692l.365-4.528.087-1.082.103-1.293a.85.85 0 0 1 .226-.512l.667-.718h1.253l.663.718a.85.85 0 0 1 .226.512l.102 1.288.088 1.092.364 4.523z"/>
        <path d="M19.433 28.112l-.051.092-.005-.144z"/>
        <path stroke="#FB3" stroke-linecap="round" stroke-linejoin="round" d="M19.433 28.112l-.051.092-.005-.144z"/>
        <path d="M24.767 49.024H15.8l.751-.61h7.463z"/>
        <path stroke="#FB3" stroke-linecap="round" stroke-linejoin="round" d="M24.767 49.024H15.8l.751-.61h7.463z"/>
        <path d="M21.19 28.065l-.006.134-.051-.087z"/>
        <path stroke="#FB3" stroke-linecap="round" stroke-linejoin="round" d="M21.19 28.065l-.006.134-.051-.087z"/>
        <path d="M21.649 30.27v.704c0 .07-.023.139-.065.195l-.449.604h-1.703l-.449-.604a.327.327 0 0 1-.064-.195v-.705l.237-.204h2.254l.239.204z"/>
        <path stroke="#FB3" stroke-linecap="round" stroke-linejoin="round" d="M21.649 30.27v.704c0 .07-.023.139-.065.195l-.449.604h-1.703l-.449-.604a.327.327 0 0 1-.064-.195v-.705l.237-.204h2.254l.239.204z"/>
        <path d="M21.646 29.132v.646l-.236.287h-2.254l-.236-.287v-.646c0-.056.01-.108.04-.159l.422-.77.051-.091h1.7l.051.087.421.774c.031.051.041.103.041.16"/>
        <path stroke="#FB3" stroke-linecap="round" stroke-linejoin="round" d="M21.646 29.132v.646l-.236.287h-2.254l-.236-.287v-.646c0-.056.01-.108.04-.159l.422-.77.051-.091h1.7l.051.087.421.774c.031.051.041.103.041.16z"/>
        <path d="M24.014 42.583l-.805-.352.373-.897c.029-.07.11-.1.177-.07l.569.268c.064.03.093.106.065.17l-.379.881z"/>
        <path stroke="#FB3" stroke-linecap="round" stroke-linejoin="round" d="M24.014 42.583l-.805-.352.373-.897c.029-.07.11-.1.177-.07l.569.268c.064.03.093.106.065.17l-.379.881z"/>
        <path d="M24.767 49.024l-.026.733h-8.915l-.026-.733z"/>
        <path stroke="#FB3" stroke-linecap="round" stroke-linejoin="round" d="M24.767 49.024l-.026.733h-8.915l-.026-.733z"/>
        <path d="M19.66 18.388h1.252v-.728h-1.253z"/>
        <path stroke="#FB3" stroke-linecap="round" stroke-linejoin="round" d="M19.66 18.388h1.252v-.728h-1.253z"/>
        <path d="M22.345 33.678l-.415 7.226c-.02.354-.183.685-.451.917l-.298.258h-1.796l-.298-.258a1.313 1.313 0 0 1-.453-.918l-.412-7.225a.853.853 0 0 1 .185-.638l1.025-1.267h1.703l1.025 1.267c.145.18.212.41.185.638"/>
        <path stroke="#FB3" stroke-linecap="round" stroke-linejoin="round" d="M22.345 33.678l-.415 7.226c-.02.354-.183.685-.451.917l-.298.258h-1.796l-.298-.258a1.313 1.313 0 0 1-.453-.918l-.412-7.225a.853.853 0 0 1 .185-.638l1.025-1.267h1.703l1.025 1.267c.145.18.212.41.185.638z"/>
        <path d="M19.385 43.5h1.797v-1.42h-1.797z"/>
        <path stroke="#FB3" stroke-linecap="round" stroke-linejoin="round" d="M19.385 43.5h1.797v-1.42h-1.797z"/>
        <path d="M22.044 44.345h-3.52l.862-.844h1.795z"/>
        <path stroke="#FB3" stroke-linecap="round" stroke-linejoin="round" d="M22.044 44.345h-3.52l.862-.844h1.795z"/>
        <path d="M21.898 11.067l-.55 1.464h-2.129l-.551-1.464z"/>
        <path stroke="#FB3" stroke-linecap="round" stroke-linejoin="round" d="M21.898 11.067l-.55 1.464h-2.129l-.551-1.464z"/>
        <path d="M21.348 12.531v4.186c0 .162-.046.32-.132.457l-.306.484h-1.253l-.306-.484a.856.856 0 0 1-.132-.457v-4.186h2.129z"/>
        <path stroke="#FB3" stroke-linecap="round" stroke-linejoin="round" d="M21.348 12.531v4.186c0 .162-.046.32-.132.457l-.306.484h-1.253l-.306-.484a.856.856 0 0 1-.132-.457v-4.186h2.129z"/>
        <path d="M20.283 49.756H18.07v2.97h4.426v-2.97z"/>
        <path stroke="#FB3" stroke-linecap="round" stroke-linejoin="round" d="M20.283 49.756H18.07v2.97h4.426v-2.97z"/>
        <path d="M20.283 52.726h-.469V64.55H20.752V52.726z"/>
        <path stroke="#FB3" stroke-linecap="round" stroke-linejoin="round" d="M20.283 52.726h-.469V64.55H20.752V52.726zM18.07 51.045l3.055-1.289M19.424 52.726l3.072-1.296M18.07 52.175l4.426-1.867"/>
        <path d="M27.77 79.952H12.797a.47.47 0 0 1-.37-.76l.744-.942a4.687 4.687 0 0 0 1.005-2.9v-4.043c0-1.46.456-2.885 1.304-4.076l1.224-1.719a4.688 4.688 0 0 0 .868-2.718V58.6a1.4 1.4 0 0 0-.267-.823l-.184-.255a1.404 1.404 0 0 1-.266-.824V50.99a.472.472 0 0 0-.222-.399l-.578-.359a.471.471 0 0 1-.222-.398v-.343h8.903v.343a.468.468 0 0 1-.222.398l-.578.36a.47.47 0 0 0-.22.398v5.708c0 .295-.095.584-.267.824l-.186.255c-.172.24-.266.527-.266.823v4.195c0 .975.303 1.924.87 2.718l1.223 1.72a7.036 7.036 0 0 1 1.302 4.075v4.043c0 1.052.354 2.074 1.006 2.9l.743.942a.47.47 0 0 1-.37.76"/>
        <path stroke="#FB3" stroke-linecap="round" stroke-linejoin="round" d="M27.77 79.952H12.797a.47.47 0 0 1-.37-.76l.744-.942a4.687 4.687 0 0 0 1.005-2.9v-4.043c0-1.46.456-2.885 1.304-4.076l1.224-1.719a4.688 4.688 0 0 0 .868-2.718V58.6a1.4 1.4 0 0 0-.267-.823l-.184-.255a1.404 1.404 0 0 1-.266-.824V50.99a.472.472 0 0 0-.222-.399l-.578-.359a.471.471 0 0 1-.222-.398v-.343h8.903v.343a.468.468 0 0 1-.222.398l-.578.36a.47.47 0 0 0-.22.398v5.708c0 .295-.095.584-.267.824l-.186.255c-.172.24-.266.527-.266.823v4.195c0 .975.303 1.924.87 2.718l1.223 1.72a7.036 7.036 0 0 1 1.302 4.075v4.043c0 1.052.354 2.074 1.006 2.9l.743.942a.47.47 0 0 1-.37.76zM15.832 49.832h8.903"/>
        <path d="M23.138 0h-5.713c-.256 0-.462.228-.462.51v.71c0 .434.248.82.619.964 1.067.411 1.68 1.647 1.418 2.862l-.329 1.526a.328.328 0 0 0 .322.398h2.576c.21 0 .366-.193.322-.398l-.329-1.526c-.26-1.215.352-2.45 1.419-2.862.37-.143.619-.53.619-.963V.51c0-.282-.207-.51-.462-.51"/>
        <path stroke="#FB3" stroke-linecap="round" stroke-linejoin="round" d="M23.138 0h-5.713c-.256 0-.462.228-.462.51v.71c0 .434.248.82.619.964 1.067.411 1.68 1.647 1.418 2.862l-.329 1.526a.328.328 0 0 0 .322.398h2.576c.21 0 .366-.193.322-.398l-.329-1.526c-.26-1.215.352-2.45 1.419-2.862.37-.143.619-.53.619-.963V.51c0-.282-.207-.51-.462-.51zM16.963.51H23.6"/>
        <path d="M14.777 39.469l-.397.757s-.69-.283-1.398-.554l-1.421-.557.627-1.23 1.286.784c.651.39 1.303.8 1.303.8"/>
        <path stroke="#FB3" stroke-linecap="round" stroke-linejoin="round" d="M14.777 39.469l-.397.757s-.69-.283-1.398-.554l-1.421-.557.627-1.23 1.286.784c.651.39 1.303.8 1.303.8z"/>
        <path d="M11.466 37.675l-.515.955.73.25.387-.761z"/>
        <path stroke="#FB3" stroke-linecap="round" stroke-linejoin="round" d="M11.466 37.675l-.515.955.73.25.387-.761z"/>
        <path d="M10.273 36.96l-.621.89s.075.057.199.136c.122.082.284.181.447.278.325.193.653.366.653.366l.514-.955s-.315-.167-.615-.345a8.673 8.673 0 0 1-.402-.25c-.106-.068-.175-.12-.175-.12"/>
        <path stroke="#FB3" stroke-linecap="round" stroke-linejoin="round" d="M10.273 36.96l-.621.89s.075.057.199.136c.122.082.284.181.447.278.325.193.653.366.653.366l.514-.955s-.315-.167-.615-.345a8.673 8.673 0 0 1-.402-.25c-.106-.068-.175-.12-.175-.12z"/>
        <path d="M21.03 55.876a3.526 3.526 0 0 1 0-2.292h-1.362a3.53 3.53 0 0 1 0 2.292H21.029z"/>
        <path stroke="#FB3" stroke-linecap="round" stroke-linejoin="round" d="M21.03 55.876a3.526 3.526 0 0 1 0-2.292h-1.362a3.53 3.53 0 0 1 0 2.292H21.029z"/>
        <path d="M21.03 58.169a3.526 3.526 0 0 1 0-2.292h-1.362a3.526 3.526 0 0 1 0 2.292H21.029z"/>
        <path stroke="#FB3" stroke-linecap="round" stroke-linejoin="round" d="M21.03 58.169a3.526 3.526 0 0 1 0-2.292h-1.362a3.526 3.526 0 0 1 0 2.292H21.029z"/>
        <path d="M21.03 60.46a3.526 3.526 0 0 1 0-2.291h-1.362a3.526 3.526 0 0 1 0 2.292H21.029z"/>
        <path stroke="#FB3" stroke-linecap="round" stroke-linejoin="round" d="M21.03 60.46a3.526 3.526 0 0 1 0-2.291h-1.362a3.526 3.526 0 0 1 0 2.292H21.029z"/>
        <path d="M21.03 62.753a3.526 3.526 0 0 1 0-2.292h-1.362a3.526 3.526 0 0 1 0 2.292H21.029z"/>
        <path stroke="#FB3" stroke-linecap="round" stroke-linejoin="round" d="M21.03 62.753a3.526 3.526 0 0 1 0-2.292h-1.362a3.526 3.526 0 0 1 0 2.292H21.029z"/>
        <path d="M19.668 53.585h1.361v-2.293h-1.361z"/>
        <path stroke="#FB3" stroke-linecap="round" stroke-linejoin="round" d="M19.668 53.585h1.361v-2.293h-1.361z"/>
        <path d="M19.668 74.27h1.361V62.753h-1.361z"/>
        <path stroke="#FB3" stroke-linecap="round" stroke-linejoin="round" d="M19.668 74.27h1.361V62.753h-1.361z"/>
        <path d="M21.03 74.27h-1.362l.355 3.68h.651z"/>
        <path stroke="#FB3" stroke-linecap="round" stroke-linejoin="round" d="M21.03 74.27h-1.362l.355 3.68h.651z"/>
        <path fill="#FB3" d="M18.663 20.912l-.087 1.082c-.447.025-.894.061-1.33.102a19.712 19.712 0 0 0-2.968.549c-.945.262-1.828.615-2.64 1.051-.816.436-1.51.995-2.115 1.595-.288.318-.575.626-.801.975-.257.323-.437.692-.632 1.035-.19.35-.318.724-.472 1.072-.129.364-.242.723-.334 1.082a8.265 8.265 0 0 0-.267 2.026c0 .64.082 1.23.252 1.749.061.266.184.497.272.733.118.22.215.436.339.63.107.155.205.319.313.473l.36.446c.287.307.585.615.913.887.062.051.118.102.175.143.067.031.133.047.2.067.123.036.206.098.277.139.14.087.206.143.206.143l-.046.072-.478.672-.046.066-.103.15-.051.07s-.077-.05-.216-.168c-.067-.067-.159-.134-.241-.252-.036-.056-.077-.123-.134-.18-.051-.055-.118-.107-.185-.163a10.94 10.94 0 0 1-1.021-.99l-.411-.508c-.129-.174-.247-.364-.37-.543A6.843 6.843 0 0 1 6 31.487a9.185 9.185 0 0 1 .293-2.283c.097-.39.22-.785.354-1.18.175-.39.313-.8.524-1.19.216-.389.416-.8.703-1.168.252-.39.576-.739.9-1.098.677-.677 1.457-1.308 2.35-1.79a13.95 13.95 0 0 1 2.871-1.159 21.653 21.653 0 0 1 3.133-.59 30.453 30.453 0 0 1 1.535-.117M34.936 32.26c-.067 1.19-.509 2.329-1.125 3.267-.61.954-1.366 1.744-2.136 2.451a33.739 33.739 0 0 1-2.341 1.918c-1.556 1.17-3.04 2.22-4.283 3.298-.668.58-1.31 1.184-1.87 1.84-.215.252-.42.508-.61.775-.575.805-1.032 1.677-1.3 2.605a4.96 4.96 0 0 0-.138.544l-.01.066-.072.467-.036.22c0 .016 0 .031-.005.047v.046c0 .01 0 .02-.005.03-.016.247-.047.483.051.703a.953.953 0 0 1 .067.349.21.21 0 0 1 .005.056c.01.129.015.257.01.375-.01.251-.015.482-.015.692-.005.2-.005.38-.005.544v1.03h-1.54v-1.03c.004-.282 0-.62-.011-1.01 0-.072-.005-.15-.005-.226-.005-.118 0-.246.005-.375.005-.133.02-.266.072-.405.025-.061.051-.118.061-.18.052-.168.057-.343.062-.522 0-.026.005-.052.005-.077 0-.057.005-.118.01-.175l.016-.092.072-.467.051-.317c.02-.098.046-.195.072-.293.308-1.21.873-2.338 1.592-3.323.174-.24.354-.472.539-.692.118-.139.236-.277.36-.41a18.46 18.46 0 0 1 1.468-1.436c.041-.036.077-.067.123-.103l.005-.005c.062-.056.124-.113.185-.164 1.31-1.128 2.82-2.185 4.355-3.333 1.514-1.154 3.127-2.4 4.21-4.047.54-.82.894-1.743.955-2.728.072-.959-.128-2.025-.415-3.03-.298-1-.745-1.97-1.382-2.806-.626-.846-1.412-1.564-2.295-2.159-1.803-1.143-3.934-1.774-6.08-2.025a28.735 28.735 0 0 0-1.617-.154l-.088-1.092c.611.03 1.227.082 1.844.158 2.244.262 4.544.908 6.557 2.175a10.48 10.48 0 0 1 2.593 2.42c.72.954 1.227 2.041 1.566 3.154.165.56.298 1.123.38 1.687.057.277.077.575.098.872.036.292.005.59-.005.887"/>
        <path d="M15.328 39.344l-.863 1.461c-.41-.246-.773-.443-.954-.54a.131.131 0 0 1-.052-.182l.77-1.31a.13.13 0 0 1 .185-.045c.14.092.42.28.914.616"/>
        <path stroke="#FB3" stroke-linecap="round" stroke-linejoin="round" d="M15.328 39.344l-.863 1.461c-.41-.246-.773-.443-.954-.54a.131.131 0 0 1-.052-.182l.77-1.31a.13.13 0 0 1 .185-.045c.14.092.42.28.914.616z"/>
    </g>
</svg>
