<svg xmlns="http://www.w3.org/2000/svg" width="200" height="400" viewBox="0 0 200 400">
    <g fill="none" fill-rule="evenodd">
        <path fill="#0D0D0D" d="M79.032 197.445l-1.836 3.46-12.797-5.36 2.883-5.632z"/>
        <path stroke="#FB3" stroke-linecap="round" stroke-linejoin="round" d="M79.032 197.445l-1.836 3.46-12.797-5.36 2.883-5.632z"/>
        <path fill="#0D0D0D" d="M63.914 188.91l-2.248 4.435 3.283 1.13 1.784-3.488z"/>
        <path stroke="#FB3" stroke-linecap="round" stroke-linejoin="round" d="M63.914 188.91l-2.248 4.435 3.283 1.13 1.784-3.488z"/>
        <path fill="#0D0D0D" d="M57.992 185.8l-2.216 4.451 5.89 3.093 2.25-4.434z"/>
        <path stroke="#FB3" stroke-linecap="round" stroke-linejoin="round" d="M57.992 185.8l-2.216 4.451 5.89 3.093 2.25-4.434z"/>
        <path fill="#0D0D0D" d="M116.764 140.572c3.516.801 6.666 2.736 8.933 5.536l1.657-2.64 1.657-2.638h-.002c-3.52-.829-6.666-2.761-8.957-5.552l-1.645 2.647-1.646 2.647h.003z"/>
        <path stroke="#FB3" stroke-linecap="round" stroke-linejoin="round" d="M116.764 140.572c3.516.801 6.666 2.736 8.933 5.536l1.657-2.64 1.657-2.638h-.002c-3.52-.829-6.666-2.761-8.957-5.552l-1.645 2.647-1.646 2.647h.003z"/>
        <path fill="#0D0D0D" d="M107.802 135.068a16.101 16.101 0 0 1 8.96 5.502v.003l1.645-2.647 1.643-2.647a16.385 16.385 0 0 1-8.976-5.515l-1.636 2.652-1.636 2.652z"/>
        <path stroke="#FB3" stroke-linecap="round" stroke-linejoin="round" d="M107.802 135.068a16.101 16.101 0 0 1 8.96 5.502v.003l1.645-2.647 1.643-2.647a16.385 16.385 0 0 1-8.976-5.515l-1.636 2.652-1.636 2.652z"/>
        <path fill="#0D0D0D" d="M98.826 129.586a16.137 16.137 0 0 1 8.976 5.482l1.636-2.652 1.636-2.652a16.392 16.392 0 0 1-8.99-5.488v-.003l-1.629 2.657-1.629 2.656z"/>
        <path stroke="#FB3" stroke-linecap="round" stroke-linejoin="round" d="M98.826 129.586a16.137 16.137 0 0 1 8.976 5.482l1.636-2.652 1.636-2.652a16.392 16.392 0 0 1-8.99-5.488v-.003l-1.629 2.657-1.629 2.656z"/>
        <path fill="#0D0D0D" d="M89.836 124.122a16.154 16.154 0 0 1 8.988 5.463v.002l1.631-2.656 1.629-2.657a16.327 16.327 0 0 1-8.997-5.47h-.003l-1.624 2.66-1.624 2.658z"/>
        <path stroke="#FB3" stroke-linecap="round" stroke-linejoin="round" d="M89.836 124.122a16.154 16.154 0 0 1 8.988 5.463v.002l1.631-2.656 1.629-2.657a16.327 16.327 0 0 1-8.997-5.47h-.003l-1.624 2.66-1.624 2.658z"/>
        <path fill="#0D0D0D" d="M134.585 151.693l3.361-5.246-8.936-5.616-3.314 5.277z"/>
        <path stroke="#FB3" stroke-linecap="round" stroke-linejoin="round" d="M134.585 151.693l3.361-5.246-8.936-5.616-3.314 5.277z"/>
        <path fill="#0D0D0D" d="M89.836 124.122l3.248-5.317-45.316-27.303-3.217 5.336z"/>
        <path stroke="#FB3" stroke-linecap="round" stroke-linejoin="round" d="M89.836 124.122l3.248-5.317-45.316-27.303-3.217 5.336z"/>
        <path fill="#0D0D0D" d="M44.55 96.84l3.22-5.337-15.35-7.28-1.532 2.555z"/>
        <path stroke="#FB3" stroke-linecap="round" stroke-linejoin="round" d="M44.55 96.84l3.22-5.337-15.35-7.28-1.532 2.555z"/>
        <path fill="#FB3" d="M55.598 190.605s-.377-.16-1.054-.584c-.328-.261-.757-.451-1.16-.832-.205-.197-.422-.427-.688-.606-.276-.164-.594-.274-.922-.42-1.82-.634-3.67-1.268-5.603-1.604l-1.937-.404-1.97-.22-1.971-.224-1.98-.033c-3.192-.157-6.697.32-10.388 1.16-3.644 1.029-7.378 2.727-10.803 5.339-3.283 2.783-6.086 6.472-8.109 10.932-.433 1.144-.79 2.347-1.2 3.537l-.605 1.806-.349 1.92c-.233 1.284-.471 2.585-.712 3.9-.15 1.336-.167 2.713-.26 4.087-.463 5.516.3 11.31 1.255 17.229 1.348 5.862 2.998 11.902 5.648 17.755 5.086 11.762 12.907 23.178 23.312 32.577 10.435 9.361 23.482 16.421 37.672 20.487 14.164 4.084 29.513 5.41 44.458 4.143 14.902-1.435 29.624-5.844 41.733-14.099 12.217-8.044 21.483-19.723 26.817-32.497 2.553-6.428 4.41-13.04 5.179-19.679.808-6.696 1.098-13.342.688-19.674-.745-12.736-5.386-24.054-11.863-33.058-.743-1.17-1.622-2.236-2.473-3.303-.86-1.061-1.669-2.14-2.539-3.156-1.836-1.961-3.493-3.983-5.35-5.761-3.605-3.65-7.268-6.9-10.777-9.88-1.79-1.459-3.52-2.87-5.188-4.235-1.719-1.31-3.376-2.572-4.97-3.784a77.892 77.892 0 0 0-4.617-3.356c-1.447-1.019-2.586-1.733-3.823-2.543-1.224-.735-2.223-1.67-3.611-1.87-.674-.131-1.233-.406-1.745-.718a19.545 19.545 0 0 1-1.48-.893c-1.84-1.254-3.422-2.29-4.738-3.088l-3.997-2.497 3.752-5.98s1.398.872 4.017 2.51c1.308.816 2.925 1.838 4.858 2.972.483.287.964.616 1.454.968.502.333.992.723 1.398 1.278.768 1.183 2.039 1.747 3.227 2.58 1.259.83 2.383 1.537 3.936 2.638a80.672 80.672 0 0 1 4.788 3.495l5.065 3.875c1.709 1.402 3.482 2.856 5.31 4.359 3.607 3.077 7.383 6.442 11.138 10.263 1.926 1.853 3.687 3.998 5.6 6.062.915 1.076 1.78 2.224 2.688 3.354.903 1.134 1.827 2.268 2.628 3.527 6.923 9.61 12.033 22.222 12.769 35.863.422 6.797.094 13.709-.766 20.717-.842 7.1-2.838 14.183-5.6 21.069-5.748 13.692-15.763 26.224-28.843 34.794-12.976 8.793-28.597 13.396-44.203 14.857-15.652 1.28-31.45-.122-46.33-4.434-14.852-4.29-28.594-11.764-39.562-21.656-10.942-9.932-19.133-21.955-24.453-34.334-2.765-6.163-4.502-12.532-5.9-18.732-1.01-6.276-1.794-12.44-1.294-18.4.103-1.486.13-2.958.3-4.41.265-1.449.527-2.881.789-4.298.132-.707.266-1.411.396-2.109l.679-2.036c.464-1.343.872-2.689 1.374-3.98 2.307-5.109 5.61-9.46 9.504-12.713 4.03-3.082 8.384-5.024 12.542-6.177 4.191-.963 8.128-1.461 11.663-1.287l2.202.047 2.183.246 2.182.259 2.157.448c2.14.385 4.224 1.09 6.294 1.825.382.157.73.331 1.084.43.358.09.726.103 1.06.136.691.056 1.158.291 1.521.42.733.318 1.084.54 1.084.54l-2.571 5.16z"/>
        <path fill="#0D0D0D" d="M81.83 196.644l-4.32 7.3a110.035 110.035 0 0 0-4.776-2.694.655.655 0 0 1-.26-.914l3.86-6.548a.65.65 0 0 1 .92-.223c.699.463 2.108 1.405 4.576 3.08"/>
        <path stroke="#FB3" stroke-linecap="round" stroke-linejoin="round" d="M81.83 196.644l-4.32 7.3a110.035 110.035 0 0 0-4.776-2.694.655.655 0 0 1-.26-.914l3.86-6.548a.65.65 0 0 1 .92-.223c.699.463 2.108 1.405 4.576 3.08z"/>
        <path fill="#0D0D0D" d="M124.703 235.453l.627 6.503H87.957l.63-6.503 1.188-8.741 3.198-2.236c-1.727-8.554-5.15-13.223-9.59-16.63-1.78-1.37-3.928-2.746-5.872-3.901l4.32-7.3c12.569 7.3 14.912 25.8 14.912 25.8l1.09-.818h17.63l1.091.817 4.736-11.376h.007l4.033 1.761-5.016 11.647 3.208 2.236 1.18 8.741z"/>
        <path stroke="#FB3" stroke-linecap="round" stroke-linejoin="round" d="M124.703 235.453l.627 6.503H87.957l.63-6.503 1.188-8.741 3.198-2.236c-1.727-8.554-5.15-13.223-9.59-16.63-1.78-1.37-3.928-2.746-5.872-3.901l4.32-7.3c12.569 7.3 14.912 25.8 14.912 25.8l1.09-.818h17.63l1.091.817 4.736-11.376h.007l4.033 1.761-5.016 11.647 3.208 2.236 1.18 8.741z"/>
        <path fill="#0D0D0D" d="M111.947 36.664h-10.576c-.656 0-1.118-.75-.936-1.487l2.847-12.647h6.763l2.847 12.647c.184.737-.29 1.487-.945 1.487"/>
        <path stroke="#FB3" stroke-linecap="round" stroke-linejoin="round" d="M111.947 36.664h-10.576c-.656 0-1.118-.75-.936-1.487l2.847-12.647h6.763l2.847 12.647c.184.737-.29 1.487-.945 1.487z"/>
        <path fill="#0D0D0D" d="M102.32 43.991h8.648v-7.318h-8.648z"/>
        <path stroke="#FB3" stroke-linecap="round" stroke-linejoin="round" d="M102.32 43.991h8.648v-7.318h-8.648z"/>
        <path fill="#0D0D0D" d="M155.548 43.99l-3.594 3.293a2.155 2.155 0 0 1-1.452.564H62.788c-.54 0-1.059-.202-1.455-.566l-3.585-3.29h97.8z"/>
        <path stroke="#FB3" stroke-linecap="round" stroke-linejoin="round" d="M155.548 43.99l-3.594 3.293a2.155 2.155 0 0 1-1.452.564H62.788c-.54 0-1.059-.202-1.455-.566l-3.585-3.29h97.8z"/>
        <path fill="#0D0D0D" d="M147.73 47.846l-30.004 7.524H95.562l-29.995-7.524z"/>
        <path stroke="#FB3" stroke-linecap="round" stroke-linejoin="round" d="M147.73 47.846l-30.004 7.524H95.562l-29.995-7.524z"/>
        <path fill="#0D0D0D" d="M117.018 132.596a4.267 4.267 0 0 1-1.332 3.45l-4.511 4.24-.264.249h-8.526l-.271-.259-4.502-4.23a4.264 4.264 0 0 1-1.335-3.45l2.768-34.49a4.248 4.248 0 0 1 1.129-2.563l3.34-3.593h6.27l3.335 3.593a4.266 4.266 0 0 1 1.127 2.56l2.772 34.493z"/>
        <path stroke="#FB3" stroke-linecap="round" stroke-linejoin="round" d="M117.018 132.596a4.267 4.267 0 0 1-1.332 3.45l-4.511 4.24-.264.249h-8.526l-.271-.259-4.502-4.23a4.264 4.264 0 0 1-1.335-3.45l2.768-34.49a4.248 4.248 0 0 1 1.129-2.563l3.34-3.593h6.27l3.335 3.593a4.266 4.266 0 0 1 1.127 2.56l2.772 34.493z"/>
        <path fill="#0D0D0D" d="M102.385 140.535l-.25.446-.021-.704z"/>
        <path stroke="#FB3" stroke-linecap="round" stroke-linejoin="round" d="M102.385 140.535l-.25.446-.021-.704z"/>
        <path fill="#0D0D0D" d="M129.098 245.008H84.2l3.758-3.05h37.372z"/>
        <path stroke="#FB3" stroke-linecap="round" stroke-linejoin="round" d="M129.098 245.008H84.2l3.758-3.05h37.372z"/>
        <path fill="#0D0D0D" d="M111.176 140.285l-.024.688-.24-.439z"/>
        <path stroke="#FB3" stroke-linecap="round" stroke-linejoin="round" d="M111.176 140.285l-.024.688-.24-.439z"/>
        <path fill="#0D0D0D" d="M113.483 151.307v3.52c0 .35-.113.693-.325.978l-2.246 3.017h-8.526l-2.249-3.017a1.65 1.65 0 0 1-.325-.98v-3.518l1.188-1.022h11.288l1.195 1.022z"/>
        <path stroke="#FB3" stroke-linecap="round" stroke-linejoin="round" d="M113.483 151.307v3.52c0 .35-.113.693-.325.978l-2.246 3.017h-8.526l-2.249-3.017a1.65 1.65 0 0 1-.325-.98v-3.518l1.188-1.022h11.288l1.195 1.022z"/>
        <path fill="#0D0D0D" d="M113.28 144.837c.133.242.204.514.204.789v3.239l-1.195 1.42H101l-1.188-1.42v-3.239c0-.277.07-.547.203-.79l2.119-3.853.25-.449h8.528l.24.44 2.129 3.863z"/>
        <path stroke="#FB3" stroke-linecap="round" stroke-linejoin="round" d="M113.28 144.837c.133.242.204.514.204.789v3.239l-1.195 1.42H101l-1.188-1.42v-3.239c0-.277.07-.547.203-.79l2.119-3.853.25-.449h8.528l.24.44 2.129 3.863z"/>
        <path fill="#0D0D0D" d="M125.33 212.829l-4.033-1.762 1.87-4.483a.658.658 0 0 1 .888-.34l2.847 1.33c.321.154.465.53.326.853l-1.898 4.402z"/>
        <path stroke="#FB3" stroke-linecap="round" stroke-linejoin="round" d="M125.33 212.829l-4.033-1.762 1.87-4.483a.658.658 0 0 1 .888-.34l2.847 1.33c.321.154.465.53.326.853l-1.898 4.402z"/>
        <path fill="#0D0D0D" d="M129.098 245.008l-.13 3.659H84.328l-.128-3.66z"/>
        <path stroke="#FB3" stroke-linecap="round" stroke-linejoin="round" d="M129.098 245.008l-.13 3.659H84.328l-.128-3.66z"/>
        <path fill="#0D0D0D" d="M103.512 91.95h6.273V88.3h-6.273z"/>
        <path stroke="#FB3" stroke-linecap="round" stroke-linejoin="round" d="M103.512 91.95h6.273V88.3h-6.273z"/>
        <path fill="#0D0D0D" d="M116.97 168.339l-2.073 36.1a6.55 6.55 0 0 1-2.261 4.582l-1.49 1.289h-8.995l-1.494-1.287a6.556 6.556 0 0 1-2.268-4.591l-2.064-36.093a4.266 4.266 0 0 1 .924-3.187l5.136-6.33h8.526l5.136 6.33a4.256 4.256 0 0 1 .924 3.187"/>
        <path stroke="#FB3" stroke-linecap="round" stroke-linejoin="round" d="M116.97 168.339l-2.073 36.1a6.55 6.55 0 0 1-2.261 4.582l-1.49 1.289h-8.995l-1.494-1.287a6.556 6.556 0 0 1-2.268-4.591l-2.064-36.093a4.266 4.266 0 0 1 .924-3.187l5.136-6.33h8.526l5.136 6.33a4.256 4.256 0 0 1 .924 3.187z"/>
        <path fill="#0D0D0D" d="M102.15 217.41h8.995v-7.1h-8.995z"/>
        <path stroke="#FB3" stroke-linecap="round" stroke-linejoin="round" d="M102.15 217.41h8.995v-7.1h-8.995z"/>
        <path fill="#0D0D0D" d="M115.463 221.628H97.834l4.318-4.218h8.993z"/>
        <path stroke="#FB3" stroke-linecap="round" stroke-linejoin="round" d="M115.463 221.628H97.834l4.318-4.218h8.993z"/>
        <path fill="#0D0D0D" d="M114.731 55.37l-2.753 7.318h-10.66l-2.762-7.318z"/>
        <path stroke="#FB3" stroke-linecap="round" stroke-linejoin="round" d="M114.731 55.37l-2.753 7.318h-10.66l-2.762-7.318z"/>
        <path fill="#0D0D0D" d="M111.978 62.687v20.914c0 .808-.231 1.6-.662 2.28l-1.533 2.42h-6.27l-1.532-2.42a4.245 4.245 0 0 1-.662-2.28V62.687h10.659z"/>
        <path stroke="#FB3" stroke-linecap="round" stroke-linejoin="round" d="M111.978 62.687v20.914c0 .808-.231 1.6-.662 2.28l-1.533 2.42h-6.27l-1.532-2.42a4.245 4.245 0 0 1-.662-2.28V62.687h10.659z"/>
        <path fill="#0D0D0D" d="M106.646 248.664H95.562v14.838h22.167v-14.838z"/>
        <path stroke="#FB3" stroke-linecap="round" stroke-linejoin="round" d="M106.646 248.664H95.562v14.838h22.167v-14.838z"/>
        <path fill="#0D0D0D" d="M106.646 263.502h-2.348v59.08h4.695v-59.08z"/>
        <path stroke="#FB3" stroke-linecap="round" stroke-linejoin="round" d="M106.646 263.502h-2.348v59.08h4.695v-59.08z"/>
        <path fill="#0D0D0D" d="M95.563 255.103l15.298-6.44"/>
        <path stroke="#FB3" stroke-linecap="round" stroke-linejoin="round" d="M95.563 255.103l15.298-6.44"/>
        <path fill="#0D0D0D" d="M102.343 263.502l15.385-6.475"/>
        <path stroke="#FB3" stroke-linecap="round" stroke-linejoin="round" d="M102.343 263.502l15.385-6.475"/>
        <path fill="#0D0D0D" d="M95.563 260.747l22.167-9.328"/>
        <path stroke="#FB3" stroke-linecap="round" stroke-linejoin="round" d="M95.563 260.747l22.167-9.328"/>
        <path fill="#0D0D0D" d="M144.143 399.523h-74.99c-1.96 0-3.06-2.257-1.851-3.793l3.724-4.711a23.372 23.372 0 0 0 5.035-14.489v-20.197a35.05 35.05 0 0 1 6.53-20.365l6.128-8.584a23.382 23.382 0 0 0 4.347-13.58v-20.958c0-1.48-.465-2.917-1.337-4.115l-.92-1.273a7 7 0 0 1-1.336-4.114v-28.521c0-.81-.422-1.562-1.11-1.992l-2.897-1.794a2.351 2.351 0 0 1-1.11-1.992v-1.71h44.583v1.71c0 .81-.415 1.562-1.11 1.992l-2.897 1.794a2.344 2.344 0 0 0-1.103 1.992v28.52c0 1.47-.472 2.918-1.334 4.115l-.93 1.273a7.045 7.045 0 0 0-1.336 4.115v20.959c0 4.868 1.518 9.612 4.356 13.58l6.129 8.583a35.108 35.108 0 0 1 6.52 20.365v20.197a23.372 23.372 0 0 0 5.035 14.489l3.724 4.711c1.21 1.536.115 3.793-1.85 3.793"/>
        <path stroke="#FB3" stroke-linecap="round" stroke-linejoin="round" d="M144.143 399.523h-74.99c-1.96 0-3.06-2.257-1.851-3.793l3.724-4.711a23.372 23.372 0 0 0 5.035-14.489v-20.197a35.05 35.05 0 0 1 6.53-20.365l6.128-8.584a23.382 23.382 0 0 0 4.347-13.58v-20.958c0-1.48-.465-2.917-1.337-4.115l-.92-1.273a7 7 0 0 1-1.336-4.114v-28.521c0-.81-.422-1.562-1.11-1.992l-2.897-1.794a2.351 2.351 0 0 1-1.11-1.992v-1.71h44.583v1.71c0 .81-.415 1.562-1.11 1.992l-2.897 1.794a2.344 2.344 0 0 0-1.103 1.992v28.52c0 1.47-.472 2.918-1.334 4.115l-.93 1.273a7.045 7.045 0 0 0-1.336 4.115v20.959c0 4.868 1.518 9.612 4.356 13.58l6.129 8.583a35.108 35.108 0 0 1 6.52 20.365v20.197a23.372 23.372 0 0 0 5.035 14.489l3.724 4.711c1.21 1.536.115 3.793-1.85 3.793z"/>
        <path fill="#0D0D0D" d="M84.356 249.046h44.583"/>
        <path stroke="#FB3" stroke-linecap="round" stroke-linejoin="round" d="M84.356 249.046h44.583"/>
        <path fill="#0D0D0D" d="M120.943.08H92.332c-1.278 0-2.313 1.14-2.313 2.548v3.55c0 2.168 1.243 4.097 3.1 4.81 5.344 2.058 8.41 8.232 7.102 14.299l-1.645 7.628a1.642 1.642 0 0 0 1.61 1.987h12.901a1.645 1.645 0 0 0 1.612-1.987l-1.646-7.628c-1.31-6.067 1.757-12.241 7.103-14.298 1.855-.714 3.097-2.643 3.097-4.81V2.628c0-1.407-1.033-2.549-2.31-2.549"/>
        <path stroke="#FB3" stroke-linecap="round" stroke-linejoin="round" d="M120.943.08H92.332c-1.278 0-2.313 1.14-2.313 2.548v3.55c0 2.168 1.243 4.097 3.1 4.81 5.344 2.058 8.41 8.232 7.102 14.299l-1.645 7.628a1.642 1.642 0 0 0 1.61 1.987h12.901a1.645 1.645 0 0 0 1.612-1.987l-1.646-7.628c-1.31-6.067 1.757-12.241 7.103-14.298 1.855-.714 3.097-2.643 3.097-4.81V2.628c0-1.407-1.033-2.549-2.31-2.549z"/>
        <g>
            <path fill="#0D0D0D" d="M90.019 2.628h33.236"/>
            <path stroke="#FB3" stroke-linecap="round" stroke-linejoin="round" d="M90.019 3.628h33.236"/>
        </g>
        <g>
            <path fill="#0D0D0D" d="M76.061 363.996h61.173"/>
            <path stroke="#FB3" d="M76.061 363.996h61.173"/>
        </g>
        <g>
            <path fill="#0D0D0D" d="M76.061 374.932h61.173"/>
            <path stroke="#FB3" d="M76.061 374.932h61.173"/>
        </g>
    </g>
</svg>
