<?xml version="1.0" encoding="UTF-8"?>
<svg width="40px" height="40px" viewBox="0 0 40 40" version="1.1" xmlns="http://www.w3.org/2000/svg" xmlns:xlink="http://www.w3.org/1999/xlink">
    <!-- Generator: sketchtool 54.1 (76490) - https://sketchapp.com -->
    <title>9088668B-39F0-4BC4-8476-12BCF265715C</title>
    <desc>Created with sketchtool.</desc>
    <g id="Symbols" stroke="none" stroke-width="1" fill="none" fill-rule="evenodd">
        <g id="Icons-/-40x40-/-Instagram">
            <rect fill="#323232" x="0" y="0" width="40" height="40"></rect>
            <g id="instagram" transform="translate(5.000000, 5.000000)" fill="#FFBB33" fill-rule="nonzero">
                <path d="M22.4784146,0 L7.49304878,0 C3.37243902,0 0.000365853659,3.37207317 0.000365853659,7.49268293 L0.000365853659,22.4787805 C0.000365853659,26.5982927 3.37243902,29.9714634 7.49304878,29.9714634 L22.4784146,29.9714634 C26.5990244,29.9714634 29.9710976,26.5982927 29.9710976,22.4787805 L29.9710976,7.49268293 C29.9710976,3.37207317 26.5990244,0 22.4784146,0 Z M27.4734146,22.4787805 C27.4734146,25.2323415 25.2335122,27.4737805 22.4784146,27.4737805 L7.49304878,27.4737805 C4.73912195,27.4737805 2.49804878,25.2323415 2.49804878,22.4787805 L2.49804878,7.49268293 C2.49804878,4.73839024 4.73912195,2.49768293 7.49304878,2.49768293 L22.4784146,2.49768293 C25.2335122,2.49768293 27.4734146,4.73839024 27.4734146,7.49268293 L27.4734146,22.4787805 Z" id="Shape"></path>
                <circle id="Oval" cx="23.1040244" cy="6.86817073" r="1.87317073"></circle>
                <path d="M14.9857317,7.49268293 C10.8467561,7.49268293 7.49304878,10.8467561 7.49304878,14.9853659 C7.49304878,19.122439 10.8467561,22.4787805 14.9857317,22.4787805 C19.1235366,22.4787805 22.4784146,19.122439 22.4784146,14.9853659 C22.4784146,10.8467561 19.1235366,7.49268293 14.9857317,7.49268293 Z M14.9857317,19.9810976 C12.2272683,19.9810976 9.99073171,17.744561 9.99073171,14.9853659 C9.99073171,12.2261707 12.2272683,9.99036585 14.9857317,9.99036585 C17.7441951,9.99036585 19.9807317,12.2261707 19.9807317,14.9853659 C19.9807317,17.744561 17.7441951,19.9810976 14.9857317,19.9810976 Z" id="Shape"></path>
            </g>
        </g>
    </g>
</svg>