<?xml version="1.0" encoding="UTF-8"?>
<svg width="40px" height="40px" viewBox="0 0 40 40" version="1.1" xmlns="http://www.w3.org/2000/svg" xmlns:xlink="http://www.w3.org/1999/xlink">
    <!-- Generator: sketchtool 54.1 (76490) - https://sketchapp.com -->
    <title>3508A70A-5318-4C11-90EB-388AE2FC8216</title>
    <desc>Created with sketchtool.</desc>
    <g id="Symbols" stroke="none" stroke-width="1" fill="none" fill-rule="evenodd">
        <g id="Icons-/-40x40-/-E-mail">
            <rect fill="transparent" x="0" y="0" width="40" height="40"></rect>
            <g id="email" transform="translate(3.000000, 8.000000)" fill="#FFBB33" fill-rule="nonzero">
                <path d="M31.4520474,0 L3.03071121,0 C1.36301185,0 0,1.35701778 0,3.03071121 L0,21.2149784 C0,22.889278 1.36388739,24.2456897 3.03071121,24.2456897 L31.4520474,24.2456897 C33.1197468,24.2456897 34.4827586,22.8886719 34.4827586,21.2149784 L34.4827586,3.03071121 C34.4827586,1.35661369 33.1190733,0 31.4520474,0 Z M30.9866649,2.02047414 C30.0068023,3.0035695 18.497104,14.5507812 18.0242457,15.0251886 C17.6293103,15.4213362 16.8536503,15.4216056 16.4585129,15.0251886 L3.49609375,2.02047414 L30.9866649,2.02047414 Z M2.02047414,20.843548 L2.02047414,3.4021417 L10.7128906,12.1228448 L2.02047414,20.843548 Z M3.49609375,22.2252155 L12.139278,13.5538793 L15.0275458,16.451576 C16.2111395,17.6390086 18.2720905,17.6385372 19.4552802,16.451576 L22.343548,13.5539467 L30.9866649,22.2252155 L3.49609375,22.2252155 Z M32.4622845,20.843548 L23.769868,12.1228448 L32.4622845,3.4021417 L32.4622845,20.843548 Z" id="Shape"></path>
            </g>
        </g>
    </g>
</svg>