<?xml version="1.0" encoding="UTF-8"?>
<svg width="300px" height="300px" viewBox="0 0 300 300" version="1.1" xmlns="http://www.w3.org/2000/svg" xmlns:xlink="http://www.w3.org/1999/xlink">
    <!-- Generator: sketchtool 54.1 (76490) - https://sketchapp.com -->
    <title>5EFB252C-8AA8-44E1-94BC-3E22B2E830A2</title>
    <desc>Created with sketchtool.</desc>
    <g id="Symbols" stroke="none" stroke-width="1" fill="none" fill-rule="evenodd">
        <g id="Icons-/-300x300-/-1" stroke="#D48A2D">
            <g id="Group-10" transform="translate(8.000000, 8.000000)">
                <path d="M209.82477,80.9877165 L215.812198,80.9877165 C216.057836,80.9877165 216.256236,80.7892913 216.256236,80.5459843 L216.256236,80.1940157 C216.256236,79.8562205 216.10035,79.5349606 215.835817,79.3247244 L213.88016,77.7751181 C213.348731,77.3546457 213.039322,76.7144882 213.039322,76.0365354 L213.039322,74.8885039 C213.039322,72.4507087 213.847093,70.0766929 215.332731,68.1420472 L221.003665,60.7554331 C221.301265,60.3680315 221.461874,59.8908661 221.461874,59.404252 C221.461874,58.9625197 221.105227,58.6034646 220.66355,58.6034646 L209.82477,58.6034646" id="Stroke-1" stroke-linecap="round" stroke-linejoin="round"></path>
                <path d="M209.82477,80.9877165 L203.837341,80.9877165 C203.594065,80.9877165 203.395665,80.7892913 203.395665,80.5459843 L203.395665,80.1940157 C203.395665,79.8562205 203.549189,79.5349606 203.816084,79.3247244 L205.771741,77.7751181 C206.300808,77.3546457 206.610217,76.7144882 206.610217,76.0365354 L206.610217,74.8885039 C206.610217,72.4507087 205.804808,70.0766929 204.316808,68.1420472 L198.645874,60.7554331 C198.348274,60.3680315 198.187665,59.8908661 198.187665,59.404252 C198.187665,58.9625197 198.546674,58.6034646 198.985989,58.6034646 L209.82477,58.6034646" id="Stroke-3" stroke-linecap="round" stroke-linejoin="round"></path>
                <path d="M220.854629,99.2924409 L199.840762,99.2924409 C198.981029,99.2924409 198.284267,99.9892913 198.284267,100.849134 L198.284267,102.082205 C198.284267,103.268031 198.825143,104.390079 199.755733,105.129449 L206.62179,110.569606 C208.482971,112.043622 209.569448,114.292441 209.569448,116.664094 L209.569448,120.69874 C209.569448,129.264094 206.739886,137.590866 201.5248,144.384567 L181.616305,170.314488 C180.572343,171.675118 180.007848,173.340472 180.007848,175.053071 C180.007848,176.602677 181.262019,177.857008 182.809067,177.857008 L220.854629,177.857008 L220.854629,99.2924409 Z" id="Stroke-5" stroke-linecap="round" stroke-linejoin="round"></path>
                <path d="M220.854629,99.2924409 L241.868495,99.2924409 C242.728229,99.2924409 243.42499,99.9892913 243.42499,100.849134 L243.42499,102.082205 C243.42499,103.268031 242.881752,104.390079 241.951162,105.129449 L235.085105,110.569606 C233.223924,112.043622 232.13981,114.292441 232.13981,116.664094 L232.13981,120.69874 C232.13981,129.264094 234.96701,137.590866 240.184457,144.384567 L260.092952,170.314488 C261.136914,171.675118 261.70141,173.340472 261.70141,175.053071 C261.70141,176.602677 260.447238,177.857008 258.897829,177.857008 L220.854629,177.857008 L220.854629,99.2924409 Z" id="Stroke-7" stroke-linecap="round" stroke-linejoin="round"></path>
                <path d="M230.353029,152.202283 C230.353029,157.129843 226.127581,161.124331 220.912495,161.124331 C215.699771,161.124331 211.474324,157.129843 211.474324,152.202283 C211.474324,147.274724 215.699771,143.280236 220.912495,143.280236 C226.127581,143.280236 230.353029,147.274724 230.353029,152.202283 Z" id="Stroke-9" stroke-linecap="round" stroke-linejoin="round"></path>
                <path d="M79.782781,86.2266142 L69.0550095,149.455748 C68.8778667,150.499843 69.2888381,151.548661 70.110781,152.217165 C71.1689143,153.069921 71.844419,154.378583 71.844419,155.84315 C71.844419,158.415591 69.7564952,160.501417 67.182019,160.501417 C64.6099048,160.501417 62.5243429,158.415591 62.5243429,155.84315 C62.5243429,154.378583 63.1998476,153.072283 64.2532571,152.219528 C65.0775619,151.553386 65.4861714,150.502205 65.3113905,149.460472 L54.585981,86.2266142" id="Stroke-11" stroke-linecap="round" stroke-linejoin="round"></path>
                <path d="M56.6467429,201.324094 L94.5671238,201.324094" id="Stroke-13" stroke-linecap="round" stroke-linejoin="round"></path>
                <path d="M56.6467429,209.471811 L94.5671238,209.471811" id="Stroke-15" stroke-linecap="round" stroke-linejoin="round"></path>
                <path d="M119.817303,160.520551 L116.659436,166.170945" id="Stroke-17" stroke-linecap="round" stroke-linejoin="round"></path>
                <polygon id="Stroke-19" stroke-linecap="round" stroke-linejoin="round" points="136.624145 51.6701575 107.319992 51.6701575 109.06544 54.4362992 141.314888 54.4362992 141.314888 51.6701575"></polygon>
                <polygon id="Stroke-21" stroke-linecap="round" stroke-linejoin="round" points="131.933638 59.817874 112.119619 54.4367717 141.315124 54.4367717 141.315124 59.817874"></polygon>
                <path d="M145.023314,45.6883465 L143.327467,39.3151181 L141.315124,39.3151181 L139.300419,39.3151181 L137.604571,45.6883465 C137.495924,46.0592126 137.774629,46.4324409 138.161981,46.4324409 L141.315124,46.4324409 L144.465905,46.4324409 C144.853257,46.4324409 145.131962,46.0592126 145.023314,45.6883465 Z" id="Stroke-23" stroke-linecap="round" stroke-linejoin="round"></path>
                <polygon id="Stroke-25" stroke-linecap="round" stroke-linejoin="round" points="141.314415 46.433622 138.841501 46.433622 138.841501 51.6706299 141.314415 51.6706299 143.784968 51.6706299 143.784968 46.433622"></polygon>
                <polygon id="Stroke-27" stroke-linecap="round" stroke-linejoin="round" points="146.003741 51.6701575 175.307893 51.6701575 173.562446 54.4362992 141.31536 54.4362992 141.31536 51.6701575"></polygon>
                <polygon id="Stroke-29" stroke-linecap="round" stroke-linejoin="round" points="150.694011 59.817874 170.50803 54.4367717 141.314888 54.4367717 141.314888 59.817874"></polygon>
                <path d="M134.469851,59.817874 L136.803413,65.0548819 L136.803413,80.9147244 L138.65987,83.3879528 L138.65987,86.0052756 L134.980023,89.3525197 L132.398461,116.558031 L137.705661,120.776929 L135.530347,124.124173 L135.530347,126.741496 L136.536518,127.759606 L135.530347,128.487165 L135.530347,131.397402 L137.705661,133.87063 L132.398461,139.398189 L136.536518,168.932835 L138.65987,170.969055 L138.65987,175.624961 L136.113737,178.38874 L132.92989,179.40685 C132.92989,179.40685 129.580709,165.46748 119.816594,160.521024 C116.526461,158.628898 115.465966,158.045433 115.465966,158.045433 L112.09789,164.01 C112.09789,164.01 117.842042,166.50685 121.62109,168.956457 C125.385966,171.396614 129.002042,174.750945 129.746042,180.861969 L127.034575,182.463543 L126.030766,188.718661 L125.499337,193.374567 L122.31549,195.557244 L122.421775,198.174567 L141.314651,198.174567" id="Stroke-31" stroke-linecap="round" stroke-linejoin="round"></path>
                <polyline id="Stroke-33" stroke-linecap="round" stroke-linejoin="round" points="148.158034 59.817874 145.824472 65.0548819 145.824472 80.9147244 143.968015 83.3879528 143.968015 86.0052756 147.647863 89.3525197 150.229425 116.558031 144.922225 120.776929 147.097539 124.124173 147.097539 126.741496 146.091368 127.759606 147.097539 128.487165 147.097539 131.397402 144.922225 133.87063 150.229425 139.398189 146.091368 168.932835 143.968015 170.969055 143.968015 175.624961 146.514149 178.38874 149.697996 179.40685 155.673615 167.305276 158.944853 168.956457 152.884206 180.861969 155.59331 182.463543 156.59712 188.718661 157.128549 193.374567 160.312396 195.557244 160.20611 198.174567 141.315596 198.174567"></polyline>
                <path d="M138.660815,83.3867717 L143.968015,83.3867717" id="Stroke-35" stroke-linecap="round" stroke-linejoin="round"></path>
                <path d="M138.660815,86.0050394 L143.968015,86.0050394" id="Stroke-37" stroke-linecap="round" stroke-linejoin="round"></path>
                <path d="M137.704716,120.77622 L144.922697,120.77622" id="Stroke-39" stroke-linecap="round" stroke-linejoin="round"></path>
                <path d="M136.537463,127.758898 L146.089006,127.758898" id="Stroke-41" stroke-linecap="round" stroke-linejoin="round"></path>
                <path d="M137.704716,133.869685 L144.922697,133.869685" id="Stroke-43" stroke-linecap="round" stroke-linejoin="round"></path>
                <path d="M138.660815,170.968346 L143.968015,170.968346" id="Stroke-45" stroke-linecap="round" stroke-linejoin="round"></path>
                <path d="M138.660815,175.625906 L143.968015,175.625906" id="Stroke-47" stroke-linecap="round" stroke-linejoin="round"></path>
                <path d="M136.113265,178.389449 L146.515093,178.389449" id="Stroke-49" stroke-linecap="round" stroke-linejoin="round"></path>
                <path d="M125.499573,193.374803 L157.12784,193.374803" id="Stroke-51" stroke-linecap="round" stroke-linejoin="round"></path>
                <path d="M122.31549,195.557008 L160.311451,195.557008" id="Stroke-53" stroke-linecap="round" stroke-linejoin="round"></path>
                <path d="M153.863215,170.968346 L157.127368,172.525039" id="Stroke-55" stroke-linecap="round" stroke-linejoin="round"></path>
                <path d="M136.802941,65.0544094 L145.825417,65.0544094" id="Stroke-57" stroke-linecap="round" stroke-linejoin="round"></path>
                <polygon id="Stroke-59" stroke-linecap="round" stroke-linejoin="round" points="141.314415 198.175276 131.93293 198.175276 131.93293 208.795748 139.835863 208.795748 141.314415 208.795748 142.790606 208.795748 150.693539 208.795748 150.693539 198.175276"></polygon>
                <polygon id="Stroke-61" stroke-linecap="round" stroke-linejoin="round" points="141.314415 208.795984 139.328053 208.795984 139.328053 251.084173 141.255368 251.084173 141.373463 251.084173 143.300777 251.084173 143.300777 208.795984"></polygon>
                <path d="M131.933638,202.784409 L144.8816,198.175748" id="Stroke-63" stroke-linecap="round" stroke-linejoin="round"></path>
                <path d="M137.672358,208.795984 L150.693539,204.161339" id="Stroke-65" stroke-linecap="round" stroke-linejoin="round"></path>
                <path d="M131.933638,206.823543 L150.694248,200.147953" id="Stroke-67" stroke-linecap="round" stroke-linejoin="round"></path>
                <path d="M31.1457295,161.634803 L31.1457295,85.0946457 C31.1457295,76.1773228 38.3731581,68.9537008 47.2846248,68.9537008 L87.08272,68.9537008 C95.9965486,68.9537008 103.221615,76.1773228 103.221615,85.0946457 L103.221615,161.634803 C103.221615,170.549764 95.9965486,177.775748 87.08272,177.775748 L47.2846248,177.775748 C38.3731581,177.775748 31.1457295,170.549764 31.1457295,161.634803 Z" id="Stroke-69" stroke-linecap="round" stroke-linejoin="round"></path>
                <path d="M41.1065905,74.1895276 L93.2621714,74.1895276 C95.8697143,74.1895276 97.985981,76.306063 97.985981,78.913937 L97.985981,167.815512 C97.985981,170.423386 95.8697143,172.539921 93.2621714,172.539921 L41.1065905,172.539921 C38.4990476,172.539921 36.382781,170.423386 36.382781,167.815512 L36.382781,78.913937 C36.382781,76.306063 38.4990476,74.1895276 41.1065905,74.1895276 Z" id="Stroke-71" stroke-linecap="round" stroke-linejoin="round"></path>
                <path d="M177.369364,68.9714173 L175.156259,70.1926772 C171.875573,72.5029134 170.002583,76.3344094 170.193897,80.3430709 L169.183002,122.839134 L176.951307,124.896614 C176.951307,124.896614 178.448754,117.351732 184.242507,116.130472 C184.242507,88.9438583 177.369364,68.9714173 177.369364,68.9714173 Z" id="Stroke-73" stroke-linecap="round" stroke-linejoin="round"></path>
                <path d="M181.06669,117.454252 C180.386461,96.5747244 176.772747,77.9369291 174.788747,70.9731496" id="Stroke-75" stroke-linecap="round" stroke-linejoin="round"></path>
                <path d="M170.515352,123.191339 L168.564419,122.671654 C168.169981,122.591339 167.820419,122.93622 167.893638,123.330709 C168.101486,124.448031 168.392,126.552756 168.169981,128.76378 C167.844038,132.014173 164.83261,141.002362 167.407086,150.649606 C169.034438,156.758268 172.96701,161.803937 175.515505,151.396063 C177.074362,145.034646 174.301486,133.835433 175.326552,131.159055 C176.09181,129.162992 177.353067,126.982677 177.943543,126.002362 C178.115962,125.718898 178.004952,125.348031 177.70499,125.203937 L175.246248,124.445669 L170.515352,123.191339 Z" id="Stroke-77" stroke-linecap="round" stroke-linejoin="round"></path>
                <path d="M168.235406,126.37937 L176.428853,128.725039" id="Stroke-79" stroke-linecap="round" stroke-linejoin="round"></path>
                <path d="M143.249524,4.85503937 C219.213105,4.85503937 280.792686,66.4424409 280.792686,142.415669 C280.792686,218.388898 219.213105,279.981024 143.249524,279.981024 C67.2859429,279.981024 5.704,218.388898 5.704,142.415669" id="Stroke-81" stroke-linecap="round" stroke-linejoin="round"></path>
                <path d="M143.249524,1.37173228 C221.138057,1.37173228 284.276495,64.518189 284.276495,142.416614 C284.276495,220.317402 221.138057,283.463858 143.249524,283.463858 C65.3609905,283.463858 2.22255238,220.317402 2.22255238,142.416614" id="Stroke-83" stroke-linecap="round" stroke-linejoin="round"></path>
                <path d="M3.80266667,142.416614 L3.80266667,55.4733071 L1.90133333,55.4733071 L2.90989455e-13,74.1323622 L2.90989455e-13,86.3638583 L1.22346667,89.7843307 L2.90989455e-13,93.0441732 L2.90989455e-13,110.113465 L1.22346667,113.498504 L2.90989455e-13,116.874094 L2.90989455e-13,140.673307 C2.90989455e-13,141.637087 0.781790476,142.416614 1.74544762,142.416614 L3.80266667,142.416614 Z" id="Stroke-85"></path>
                <path d="M3.80266667,142.416614 L3.80266667,55.4733071 L5.704,55.4733071 L7.60533333,74.1323622 L7.60533333,86.3638583 L6.38422857,89.7843307 L7.60533333,93.0441732 L7.60533333,110.113465 L6.38422857,113.498504 L7.60533333,116.874094 L7.60533333,140.673307 C7.60533333,141.637087 6.82590476,142.416614 5.86224762,142.416614 L3.80266667,142.416614 Z" id="Stroke-87"></path>
                <path d="M1.2227581,89.783622 L6.38352,89.783622" id="Stroke-89" stroke-linecap="round" stroke-linejoin="round"></path>
                <path d="M1.2227581,113.498031 L6.38352,113.498031" id="Stroke-91" stroke-linecap="round" stroke-linejoin="round"></path>
                <path d="M1.90086095,55.4740157 L5.70352762,55.4740157" id="Stroke-93" stroke-linecap="round" stroke-linejoin="round"></path>
                <polygon id="Stroke-95" stroke-linecap="round" stroke-linejoin="round" points="135.962103 5.37637795 143.248579 6.08503937 143.248579 -4.40314452e-13 135.962103 0.706299213"></polygon>
                <path d="M208.947086,224.120315 L208.947086,219.622677 C208.947086,218.864409 209.558819,218.254961 210.314629,218.254961 L215.725752,218.254961 C216.4792,218.254961 217.093295,218.864409 217.093295,219.622677 L217.093295,225.032126 C217.093295,225.788031 216.4792,226.402205 215.725752,226.402205 L211.226324,226.402205 C209.967429,226.402205 208.947086,225.37937 208.947086,224.120315 Z" id="Stroke-97" stroke-linecap="round" stroke-linejoin="round"></path>
                <path d="M194.7296,224.374016 L194.7296,219.470079 C194.7296,218.799213 195.272838,218.253543 195.945981,218.253543 L200.443048,218.253543 C201.786971,218.253543 202.87581,219.34252 202.87581,220.684252 L202.87581,225.184252 C202.87581,225.85748 202.33021,226.400787 201.659429,226.400787 L196.756114,226.400787 C195.636571,226.400787 194.7296,225.493701 194.7296,224.374016 Z" id="Stroke-99" stroke-linecap="round" stroke-linejoin="round"></path>
                <path d="M180.511878,225.305906 L180.511878,220.808268 C180.511878,219.395669 181.65504,218.254724 183.065097,218.254724 L187.562164,218.254724 C188.169173,218.254724 188.658088,218.743701 188.658088,219.348425 L188.658088,226.035827 C188.658088,226.238976 188.495116,226.401969 188.291992,226.401969 L181.60544,226.401969 C181.003154,226.401969 180.511878,225.91063 180.511878,225.305906 Z" id="Stroke-101" stroke-linecap="round" stroke-linejoin="round"></path>
                <path d="M166.294392,224.576929 L166.294392,219.165118 C166.294392,218.661969 166.703002,218.253307 167.206088,218.253307 L173.528907,218.253307 C174.031992,218.253307 174.440602,218.661969 174.440602,219.165118 L174.440602,224.576929 C174.440602,225.585591 173.623383,226.400551 172.617211,226.400551 L168.117783,226.400551 C167.111611,226.400551 166.294392,225.585591 166.294392,224.576929 Z" id="Stroke-103" stroke-linecap="round" stroke-linejoin="round"></path>
                <path d="M189.926194,203.386299 L204.546385,201.687874 L204.546385,199.675276 L204.546385,197.660315 L189.926194,195.964252 C189.553013,195.855591 189.182194,196.136693 189.182194,196.524094 L189.182194,199.675276 L189.182194,202.828819 C189.182194,203.21622 189.553013,203.494961 189.926194,203.386299 Z" id="Stroke-105" stroke-linecap="round" stroke-linejoin="round"></path>
                <path d="M216.17475,203.395512 L230.794941,201.699449 L230.794941,199.68685 L230.794941,197.67189 L216.17475,195.975827 C215.80157,195.864803 215.43075,196.148268 215.43075,196.535669 L215.43075,199.68685 L215.43075,202.838031 C215.43075,203.225433 215.80157,203.504173 216.17475,203.395512 Z" id="Stroke-107" stroke-linecap="round" stroke-linejoin="round"></path>
                <path d="M192.187718,196.248898 L192.187718,203.122913" id="Stroke-109" stroke-linecap="round" stroke-linejoin="round"></path>
                <path d="M218.436274,196.237559 L218.436274,203.135197" id="Stroke-111" stroke-linecap="round" stroke-linejoin="round"></path>
                <path d="M206.518339,76.6577953 L213.136396,76.6766929" id="Stroke-113" stroke-linecap="round" stroke-linejoin="round"></path>
            </g>
        </g>
    </g>
</svg>