<svg xmlns="http://www.w3.org/2000/svg" width="40" height="80" viewBox="0 0 40 80">
    <g fill="none" fill-rule="evenodd">
        <path stroke="#FB3" d="M15 5.5h-5v13.59a20 20 0 0 0 3.725 11.625l12.55 17.57A20 20 0 0 1 30 59.909V74.5H10V59.91a20 20 0 0 1 3.725-11.625l12.55-17.57A20 20 0 0 0 30 19.091V5.5H15zM4.5.5v.78a.5.5 0 0 0 .342.474L7.5 2.64V5a.5.5 0 0 0 .5.5h24a.5.5 0 0 0 .5-.5V2.64l2.658-.886a.5.5 0 0 0 .342-.475V.5h-31zM35.5 79.5v-.78a.5.5 0 0 0-.342-.474L32.5 77.36V75a.5.5 0 0 0-.5-.5H8a.5.5 0 0 0-.5.5v2.36l-2.658.886a.5.5 0 0 0-.342.475v.779h31z"/>
        <path fill="#FB3" d="M14.256 61.103l4-2.857a3 3 0 0 1 3.488 0l4 2.857A3 3 0 0 1 27 63.543V72H13v-8.456a3 3 0 0 1 1.256-2.441zM24.288 28.874L20 35l-4.288-6.126A15 15 0 0 1 13 20.272V20h14v.272a15 15 0 0 1-2.712 8.602z"/>
    </g>
</svg>
