<?xml version="1.0" encoding="UTF-8"?>
<svg width="300px" height="300px" viewBox="0 0 300 300" version="1.1" xmlns="http://www.w3.org/2000/svg" xmlns:xlink="http://www.w3.org/1999/xlink">
    <!-- Generator: sketchtool 54.1 (76490) - https://sketchapp.com -->
    <title>A1123FA1-D43D-41F3-B2CB-391D899D83EF</title>
    <desc>Created with sketchtool.</desc>
    <g id="Symbols" stroke="none" stroke-width="1" fill="none" fill-rule="evenodd">
        <g id="Icons-/-300x300-/-3">
            <g id="Group-12" transform="translate(8.000000, 1.000000)">
                <path d="M224.854278,207.977717 L231.31645,196.780866 C231.583345,196.320236 231.425097,195.736772 230.966888,195.472205 L230.31264,195.094252 C229.67965,194.72811 228.914392,194.671417 228.236526,194.940709 L223.224564,196.924961 C221.864107,197.463543 220.335954,197.350157 219.069973,196.620236 L216.923002,195.380079 C212.359802,192.74622 208.793326,188.676142 206.778621,183.807638 L199.088259,165.221811 C198.686735,164.248583 197.971078,163.435984 197.059383,162.909213 C196.235078,162.432047 195.181669,162.715512 194.704564,163.539921 L183.001326,183.812362" id="Stroke-115" stroke="#D48A2D" stroke-linecap="round" stroke-linejoin="round"></path>
                <path d="M224.854278,207.977717 L218.389745,219.174567 C218.12285,219.635197 217.539459,219.791102 217.08125,219.526535 L216.427002,219.148583 C215.794011,218.780079 215.361783,218.147008 215.255497,217.424173 L214.468983,212.092677 C214.256411,210.647008 213.391954,209.378504 212.125973,208.64622 L209.979002,207.408425 C205.418164,204.772205 200.108602,203.716299 194.88643,204.406063 L174.949592,207.039921 C173.90563,207.176929 172.842773,206.966693 171.931078,206.439921 C171.104411,205.962756 170.823345,204.909213 171.298088,204.084803 L183.001326,183.812362" id="Stroke-117" stroke="#D48A2D" stroke-linecap="round" stroke-linejoin="round"></path>
                <path d="M213.185524,209.486457 L220.368076,197.127402" id="Stroke-119" stroke="#D48A2D" stroke-linecap="round" stroke-linejoin="round"></path>
                <path d="M168.348541,115.051417 L159.177265,109.757717 C157.923093,109.03252 157.490865,107.423858 158.21597,106.169528 L163.074408,97.7577165 C164.524617,95.2443307 167.734446,94.3844882 170.247512,95.8348819 L178.658255,100.691575 C179.914789,101.416772 180.344655,103.023071 179.61955,104.277402 L174.326522,113.449843 C173.119589,115.542756 170.441189,116.260866 168.348541,115.051417 Z" id="Stroke-121" stroke="#D48A2D" stroke-linecap="round" stroke-linejoin="round"></path>
                <path d="M124.480175,109.625669 L116.06707,114.484724 C113.428823,116.005984 110.058385,115.10126 108.534956,112.465039 L103.676518,104.053228 C103.024632,102.921732 103.411985,101.476063 104.543337,100.821732 L117.049623,93.6028346 C117.425166,93.3855118 117.906994,93.5154331 118.12429,93.8910236 L125.344632,106.396535 C125.99888,107.528031 125.611528,108.973701 124.480175,109.625669 Z" id="Stroke-123" stroke="#D48A2D" stroke-linecap="round" stroke-linejoin="round"></path>
                <path d="M132.91997,62.958189 L132.91997,51.2747244 C132.91997,50.185748 133.80096,49.3046457 134.889798,49.3046457 L148.539246,49.3046457 C149.628084,49.3046457 150.509074,50.185748 150.509074,51.2747244 L150.509074,62.958189 C150.509074,65.1337795 148.747093,66.8959843 146.571779,66.8959843 L136.857265,66.8959843 C134.68195,66.8959843 132.91997,65.1337795 132.91997,62.958189 Z" id="Stroke-125" stroke="#D48A2D" stroke-linecap="round" stroke-linejoin="round"></path>
                <polygon id="Stroke-127" stroke="#D48A2D" stroke-linecap="round" stroke-linejoin="round" points="114.511284 105.224173 141.715703 58.1005512 168.91776 105.224173"></polygon>
                <polygon id="Stroke-129" stroke="#D48A2D" stroke-linecap="round" stroke-linejoin="round" points="79.502659 195.894567 141.71523 88.126063 203.927802 195.894567"></polygon>
                <path d="M107.508709,195.894567 C107.508709,211.364646 94.9693562,223.903228 79.5036038,223.903228 C64.0354895,223.903228 51.4961371,211.364646 51.4961371,195.894567 C51.4961371,180.424488 64.0354895,167.885906 79.5036038,167.885906 C94.9693562,167.885906 107.508709,180.424488 107.508709,195.894567 Z" id="Stroke-131" stroke="#D48A2D" stroke-linecap="round" stroke-linejoin="round"></path>
                <path d="M99.3412419,195.894567 C99.3412419,206.852835 90.4581181,215.734724 79.5036038,215.734724 C68.5443657,215.734724 59.6636038,206.852835 59.6636038,195.894567" id="Stroke-133" stroke="#D48A2D" stroke-linecap="round" stroke-linejoin="round"></path>
                <path d="M65.9953981,183.375354 L93.0108648,183.375354" id="Stroke-135" stroke="#D48A2D" stroke-linecap="round" stroke-linejoin="round"></path>
                <path d="M139.666514,290.964094 C62.3448381,289.868031 2.84217094e-13,226.839685 2.84217094e-13,149.245984 C2.84217094e-13,70.9672441 63.4478476,7.51370079 141.714286,7.51370079" id="Stroke-137" stroke="#D48A2D" stroke-linecap="round" stroke-linejoin="round"></path>
                <polygon id="Fill-139" fill="#D48A2D" points="133.60256 283.040079 132.277531 284.39126 138.942827 290.90622 131.958674 297.073937 133.212846 298.49126 141.715703 290.974724"></polygon>
                <path d="M143.763002,7.52716535 C221.084678,8.62322835 283.429516,71.6515748 283.429516,149.245276 C283.429516,227.521654 219.981669,290.977559 141.71523,290.977559" id="Stroke-141" stroke="#D48A2D" stroke-linecap="round" stroke-linejoin="round"></path>
                <polygon id="Fill-143" fill="#D48A2D" points="149.826956 15.4488189 151.151985 14.1 144.48669 7.58503937 151.470842 1.41732283 150.21667 -1.71418435e-13 141.713813 7.51653543"></polygon>
            </g>
        </g>
    </g>
</svg>