<?xml version="1.0" encoding="UTF-8"?>
<svg width="40px" height="40px" viewBox="0 0 40 40" version="1.1" xmlns="http://www.w3.org/2000/svg" xmlns:xlink="http://www.w3.org/1999/xlink">
    <!-- Generator: sketchtool 54.1 (76490) - https://sketchapp.com -->
    <title>03C79F15-6292-49AC-BF18-CD28EC7C9B66</title>
    <desc>Created with sketchtool.</desc>
    <g id="Symbols" stroke="none" stroke-width="1" fill="none" fill-rule="evenodd">
        <g id="Icons-/-40x40-/-Phone">
            <rect fill="transparent" x="0" y="0" width="40" height="40"></rect>
            <g id="Group" transform="translate(9.014295, 0.000000)" fill="#FFBB33" fill-rule="nonzero">
                <path d="M17.5385638,0 L4.24833779,0 C1.90292553,0.00265957447 0.00232706383,1.90325796 3.55271368e-15,4.24867021 L3.55271368e-15,35.6948138 C0.00232706383,38.040226 1.90292553,39.9408245 4.24833779,39.9431516 L17.5385638,39.9431516 C19.8839761,39.9408245 21.7845745,38.040226 21.787234,35.6948138 L21.787234,4.24867021 C21.7845745,1.90325796 19.8839761,0.00265957447 17.5385638,0 Z M19.9714095,35.6948138 C19.9700797,37.0378989 18.8816489,38.1263298 17.5385638,38.1276596 L4.24833779,38.1276596 C2.90525268,38.1263298 1.81682179,37.0378989 1.815492,35.6948138 L1.815492,4.24867021 C1.81682179,2.90525268 2.90525268,1.81682179 4.24833779,1.815492 L17.5385638,1.815492 C18.8816489,1.81682179 19.9700797,2.90525268 19.9714095,4.24867021 L19.9714095,35.6948138 Z" id="Shape"></path>
                <path d="M13.6170213,3.63131651 L8.17021277,3.63131651 C7.66888298,3.63131651 7.26230051,4.03756647 7.26230051,4.53889626 C7.26230051,5.04022604 7.66888298,5.44680851 8.17021277,5.44680851 L13.6170213,5.44680851 C14.1183511,5.44680851 14.524601,5.04022604 14.524601,4.53889626 C14.524601,4.03756647 14.1183511,3.63131651 13.6170213,3.63131651 Z" id="Path"></path>
                <path d="M12.709109,34.4963431 C12.709109,35.4993351 11.8962766,36.3121676 10.893617,36.3121676 C9.89062494,36.3121676 9.07779251,35.4993351 9.07779251,34.4963431 C9.07779251,33.4936835 9.89062494,32.6808511 10.893617,32.6808511 C11.8962766,32.6808511 12.709109,33.4936835 12.709109,34.4963431 L12.709109,34.4963431 Z" id="Path"></path>
            </g>
        </g>
    </g>
</svg>